<svg xmlns="http://www.w3.org/2000/svg" width="16556" height="172" viewBox="0 0 16556 172">
<defs>
<marker id="arrow" markerWidth="10" markerHeight="7" refX="9" refY="3.5" orient="auto">
<polygon points="0 0, 10 3.5, 0 7" fill="#4b5563" />
</marker>
</defs>
<rect x="0" y="0" width="16556" height="172" fill="#ffffff" />
<path d="M 108 55 C 132.0 55, 148.0 76, 172 76" fill="none" stroke="#2563eb" stroke-width="2.6" opacity="0.95" marker-end="url(#arrow)" />
<path d="M 240 76 C 264.0 76, 280.0 76, 304 76" fill="none" stroke="#2563eb" stroke-width="2.6" opacity="0.95" marker-end="url(#arrow)" />
<path d="M 372 76 C 396.0 76, 412.0 76, 436 76" fill="none" stroke="#2563eb" stroke-width="2.6" opacity="0.95" marker-end="url(#arrow)" />
<path d="M 504 76 C 528.0 76, 544.0 76, 568 76" fill="none" stroke="#2563eb" stroke-width="2.6" opacity="0.95" marker-end="url(#arrow)" />
<path d="M 636 76 C 660.0 76, 676.0 76, 700 76" fill="none" stroke="#2563eb" stroke-width="2.6" opacity="0.95" marker-end="url(#arrow)" />
<path d="M 768 76 C 792.0 76, 808.0 76, 832 76" fill="none" stroke="#2563eb" stroke-width="2.6" opacity="0.95" marker-end="url(#arrow)" />
<path d="M 900 76 C 924.0 76, 940.0 76, 964 76" fill="none" stroke="#2563eb" stroke-width="2.6" opacity="0.95" marker-end="url(#arrow)" />
<path d="M 1032 76 C 1056.0 76, 1072.0 76, 1096 76" fill="none" stroke="#2563eb" stroke-width="2.6" opacity="0.95" marker-end="url(#arrow)" />
<path d="M 1164 76 C 1188.0 76, 1204.0 76, 1228 76" fill="none" stroke="#2563eb" stroke-width="2.6" opacity="0.95" marker-end="url(#arrow)" />
<path d="M 1296 76 C 1320.0 76, 1336.0 76, 1360 76" fill="none" stroke="#2563eb" stroke-width="2.6" opacity="0.95" marker-end="url(#arrow)" />
<path d="M 1428 76 C 1452.0 76, 1468.0 76, 1492 76" fill="none" stroke="#2563eb" stroke-width="2.6" opacity="0.95" marker-end="url(#arrow)" />
<path d="M 1560 76 C 1584.0 76, 1600.0 76, 1624 76" fill="none" stroke="#2563eb" stroke-width="2.6" opacity="0.95" marker-end="url(#arrow)" />
<path d="M 1692 76 C 1716.0 76, 1732.0 76, 1756 76" fill="none" stroke="#2563eb" stroke-width="2.6" opacity="0.95" marker-end="url(#arrow)" />
<path d="M 1824 76 C 1848.0 76, 1864.0 76, 1888 76" fill="none" stroke="#2563eb" stroke-width="2.6" opacity="0.95" marker-end="url(#arrow)" />
<path d="M 1956 76 C 1980.0 76, 1996.0 76, 2020 76" fill="none" stroke="#2563eb" stroke-width="2.6" opacity="0.95" marker-end="url(#arrow)" />
<path d="M 2088 76 C 2112.0 76, 2128.0 76, 2152 76" fill="none" stroke="#2563eb" stroke-width="2.6" opacity="0.95" marker-end="url(#arrow)" />
<path d="M 2220 76 C 2244.0 76, 2260.0 76, 2284 76" fill="none" stroke="#2563eb" stroke-width="2.6" opacity="0.95" marker-end="url(#arrow)" />
<path d="M 2352 76 C 2376.0 76, 2392.0 76, 2416 76" fill="none" stroke="#2563eb" stroke-width="2.6" opacity="0.95" marker-end="url(#arrow)" />
<path d="M 2484 76 C 2508.0 76, 2524.0 76, 2548 76" fill="none" stroke="#2563eb" stroke-width="2.6" opacity="0.95" marker-end="url(#arrow)" />
<path d="M 2616 76 C 2640.0 76, 2656.0 76, 2680 76" fill="none" stroke="#2563eb" stroke-width="2.6" opacity="0.95" marker-end="url(#arrow)" />
<path d="M 2748 76 C 2772.0 76, 2788.0 76, 2812 76" fill="none" stroke="#2563eb" stroke-width="2.6" opacity="0.95" marker-end="url(#arrow)" />
<path d="M 2880 76 C 2904.0 76, 2920.0 76, 2944 76" fill="none" stroke="#2563eb" stroke-width="2.6" opacity="0.95" marker-end="url(#arrow)" />
<path d="M 3012 76 C 3036.0 76, 3052.0 76, 3076 76" fill="none" stroke="#2563eb" stroke-width="2.6" opacity="0.95" marker-end="url(#arrow)" />
<path d="M 3144 76 C 3168.0 76, 3184.0 76, 3208 76" fill="none" stroke="#2563eb" stroke-width="2.6" opacity="0.95" marker-end="url(#arrow)" />
<path d="M 3276 76 C 3300.0 76, 3316.0 76, 3340 76" fill="none" stroke="#2563eb" stroke-width="2.6" opacity="0.95" marker-end="url(#arrow)" />
<path d="M 3408 76 C 3432.0 76, 3448.0 76, 3472 76" fill="none" stroke="#2563eb" stroke-width="2.6" opacity="0.95" marker-end="url(#arrow)" />
<path d="M 3540 76 C 3564.0 76, 3580.0 76, 3604 76" fill="none" stroke="#2563eb" stroke-width="2.6" opacity="0.95" marker-end="url(#arrow)" />
<path d="M 3672 76 C 3696.0 76, 3712.0 76, 3736 76" fill="none" stroke="#2563eb" stroke-width="2.6" opacity="0.95" marker-end="url(#arrow)" />
<path d="M 3804 76 C 3828.0 76, 3844.0 76, 3868 76" fill="none" stroke="#2563eb" stroke-width="2.6" opacity="0.95" marker-end="url(#arrow)" />
<path d="M 3936 76 C 3960.0 76, 3976.0 76, 4000 76" fill="none" stroke="#2563eb" stroke-width="2.6" opacity="0.95" marker-end="url(#arrow)" />
<path d="M 4068 76 C 4092.0 76, 4108.0 76, 4132 76" fill="none" stroke="#2563eb" stroke-width="2.6" opacity="0.95" marker-end="url(#arrow)" />
<path d="M 4200 76 C 4224.0 76, 4240.0 76, 4264 76" fill="none" stroke="#2563eb" stroke-width="2.6" opacity="0.95" marker-end="url(#arrow)" />
<path d="M 4332 76 C 4356.0 76, 4372.0 76, 4396 76" fill="none" stroke="#2563eb" stroke-width="2.6" opacity="0.95" marker-end="url(#arrow)" />
<path d="M 4464 76 C 4488.0 76, 4504.0 76, 4528 76" fill="none" stroke="#2563eb" stroke-width="2.6" opacity="0.95" marker-end="url(#arrow)" />
<path d="M 4596 76 C 4620.0 76, 4636.0 76, 4660 76" fill="none" stroke="#2563eb" stroke-width="2.6" opacity="0.95" marker-end="url(#arrow)" />
<path d="M 4728 76 C 4752.0 76, 4768.0 76, 4792 76" fill="none" stroke="#2563eb" stroke-width="2.6" opacity="0.95" marker-end="url(#arrow)" />
<path d="M 4860 76 C 4884.0 76, 4900.0 76, 4924 76" fill="none" stroke="#2563eb" stroke-width="2.6" opacity="0.95" marker-end="url(#arrow)" />
<path d="M 4992 76 C 5016.0 76, 5032.0 76, 5056 76" fill="none" stroke="#2563eb" stroke-width="2.6" opacity="0.95" marker-end="url(#arrow)" />
<path d="M 5124 76 C 5148.0 76, 5164.0 76, 5188 76" fill="none" stroke="#2563eb" stroke-width="2.6" opacity="0.95" marker-end="url(#arrow)" />
<path d="M 5256 76 C 5280.0 76, 5296.0 76, 5320 76" fill="none" stroke="#2563eb" stroke-width="2.6" opacity="0.95" marker-end="url(#arrow)" />
<path d="M 5388 76 C 5412.0 76, 5428.0 76, 5452 76" fill="none" stroke="#2563eb" stroke-width="2.6" opacity="0.95" marker-end="url(#arrow)" />
<path d="M 5520 76 C 5544.0 76, 5560.0 76, 5584 76" fill="none" stroke="#2563eb" stroke-width="2.6" opacity="0.95" marker-end="url(#arrow)" />
<path d="M 5652 76 C 5676.0 76, 5692.0 76, 5716 76" fill="none" stroke="#2563eb" stroke-width="2.6" opacity="0.95" marker-end="url(#arrow)" />
<path d="M 5784 76 C 5808.0 76, 5824.0 76, 5848 76" fill="none" stroke="#2563eb" stroke-width="2.6" opacity="0.95" marker-end="url(#arrow)" />
<path d="M 5916 76 C 5940.0 76, 5956.0 76, 5980 76" fill="none" stroke="#2563eb" stroke-width="2.6" opacity="0.95" marker-end="url(#arrow)" />
<path d="M 6048 76 C 6072.0 76, 6088.0 76, 6112 76" fill="none" stroke="#2563eb" stroke-width="2.6" opacity="0.95" marker-end="url(#arrow)" />
<path d="M 6180 76 C 6204.0 76, 6220.0 76, 6244 76" fill="none" stroke="#2563eb" stroke-width="2.6" opacity="0.95" marker-end="url(#arrow)" />
<path d="M 6312 76 C 6336.0 76, 6352.0 76, 6376 76" fill="none" stroke="#2563eb" stroke-width="2.6" opacity="0.95" marker-end="url(#arrow)" />
<path d="M 6444 76 C 6468.0 76, 6484.0 76, 6508 76" fill="none" stroke="#2563eb" stroke-width="2.6" opacity="0.95" marker-end="url(#arrow)" />
<path d="M 6576 76 C 6600.0 76, 6616.0 76, 6640 76" fill="none" stroke="#2563eb" stroke-width="2.6" opacity="0.95" marker-end="url(#arrow)" />
<path d="M 6708 76 C 6732.0 76, 6748.0 76, 6772 76" fill="none" stroke="#2563eb" stroke-width="2.6" opacity="0.95" marker-end="url(#arrow)" />
<path d="M 6840 76 C 6864.0 76, 6880.0 76, 6904 76" fill="none" stroke="#2563eb" stroke-width="2.6" opacity="0.95" marker-end="url(#arrow)" />
<path d="M 6972 76 C 6996.0 76, 7012.0 76, 7036 76" fill="none" stroke="#2563eb" stroke-width="2.6" opacity="0.95" marker-end="url(#arrow)" />
<path d="M 7104 76 C 7128.0 76, 7144.0 76, 7168 76" fill="none" stroke="#2563eb" stroke-width="2.6" opacity="0.95" marker-end="url(#arrow)" />
<path d="M 7236 76 C 7260.0 76, 7276.0 76, 7300 76" fill="none" stroke="#2563eb" stroke-width="2.6" opacity="0.95" marker-end="url(#arrow)" />
<path d="M 7368 76 C 7392.0 76, 7408.0 76, 7432 76" fill="none" stroke="#2563eb" stroke-width="2.6" opacity="0.95" marker-end="url(#arrow)" />
<path d="M 7500 76 C 7524.0 76, 7540.0 76, 7564 76" fill="none" stroke="#2563eb" stroke-width="2.6" opacity="0.95" marker-end="url(#arrow)" />
<path d="M 7632 76 C 7656.0 76, 7672.0 76, 7696 76" fill="none" stroke="#2563eb" stroke-width="2.6" opacity="0.95" marker-end="url(#arrow)" />
<path d="M 7764 76 C 7788.0 76, 7804.0 76, 7828 76" fill="none" stroke="#2563eb" stroke-width="2.6" opacity="0.95" marker-end="url(#arrow)" />
<path d="M 7896 76 C 7920.0 76, 7936.0 76, 7960 76" fill="none" stroke="#2563eb" stroke-width="2.6" opacity="0.95" marker-end="url(#arrow)" />
<path d="M 8028 76 C 8052.0 76, 8068.0 76, 8092 76" fill="none" stroke="#2563eb" stroke-width="2.6" opacity="0.95" marker-end="url(#arrow)" />
<path d="M 8160 76 C 8184.0 76, 8200.0 76, 8224 76" fill="none" stroke="#2563eb" stroke-width="2.6" opacity="0.95" marker-end="url(#arrow)" />
<path d="M 8292 76 C 8316.0 76, 8332.0 76, 8356 76" fill="none" stroke="#2563eb" stroke-width="2.6" opacity="0.95" marker-end="url(#arrow)" />
<path d="M 8424 76 C 8448.0 76, 8464.0 76, 8488 76" fill="none" stroke="#2563eb" stroke-width="2.6" opacity="0.95" marker-end="url(#arrow)" />
<path d="M 8556 76 C 8580.0 76, 8596.0 76, 8620 76" fill="none" stroke="#2563eb" stroke-width="2.6" opacity="0.95" marker-end="url(#arrow)" />
<path d="M 8688 76 C 8712.0 76, 8728.0 76, 8752 76" fill="none" stroke="#2563eb" stroke-width="2.6" opacity="0.95" marker-end="url(#arrow)" />
<path d="M 8820 76 C 8844.0 76, 8860.0 76, 8884 76" fill="none" stroke="#2563eb" stroke-width="2.6" opacity="0.95" marker-end="url(#arrow)" />
<path d="M 8952 76 C 8976.0 76, 8992.0 76, 9016 76" fill="none" stroke="#2563eb" stroke-width="2.6" opacity="0.95" marker-end="url(#arrow)" />
<path d="M 9084 76 C 9108.0 76, 9124.0 76, 9148 76" fill="none" stroke="#2563eb" stroke-width="2.6" opacity="0.95" marker-end="url(#arrow)" />
<path d="M 9216 76 C 9240.0 76, 9256.0 76, 9280 76" fill="none" stroke="#2563eb" stroke-width="2.6" opacity="0.95" marker-end="url(#arrow)" />
<path d="M 9348 76 C 9372.0 76, 9388.0 76, 9412 76" fill="none" stroke="#2563eb" stroke-width="2.6" opacity="0.95" marker-end="url(#arrow)" />
<path d="M 9480 76 C 9504.0 76, 9520.0 76, 9544 76" fill="none" stroke="#2563eb" stroke-width="2.6" opacity="0.95" marker-end="url(#arrow)" />
<path d="M 9612 76 C 9636.0 76, 9652.0 76, 9676 76" fill="none" stroke="#2563eb" stroke-width="2.6" opacity="0.95" marker-end="url(#arrow)" />
<path d="M 9744 76 C 9768.0 76, 9784.0 76, 9808 76" fill="none" stroke="#2563eb" stroke-width="2.6" opacity="0.95" marker-end="url(#arrow)" />
<path d="M 9876 76 C 9900.0 76, 9916.0 76, 9940 76" fill="none" stroke="#2563eb" stroke-width="2.6" opacity="0.95" marker-end="url(#arrow)" />
<path d="M 10008 76 C 10032.0 76, 10048.0 76, 10072 76" fill="none" stroke="#2563eb" stroke-width="2.6" opacity="0.95" marker-end="url(#arrow)" />
<path d="M 10140 76 C 10164.0 76, 10180.0 76, 10204 76" fill="none" stroke="#2563eb" stroke-width="2.6" opacity="0.95" marker-end="url(#arrow)" />
<path d="M 10272 76 C 10296.0 76, 10312.0 76, 10336 76" fill="none" stroke="#2563eb" stroke-width="2.6" opacity="0.95" marker-end="url(#arrow)" />
<path d="M 10404 76 C 10428.0 76, 10444.0 76, 10468 76" fill="none" stroke="#2563eb" stroke-width="2.6" opacity="0.95" marker-end="url(#arrow)" />
<path d="M 10536 76 C 10560.0 76, 10576.0 76, 10600 76" fill="none" stroke="#2563eb" stroke-width="2.6" opacity="0.95" marker-end="url(#arrow)" />
<path d="M 10668 76 C 10692.0 76, 10708.0 76, 10732 76" fill="none" stroke="#2563eb" stroke-width="2.6" opacity="0.95" marker-end="url(#arrow)" />
<path d="M 10800 76 C 10824.0 76, 10840.0 76, 10864 76" fill="none" stroke="#2563eb" stroke-width="2.6" opacity="0.95" marker-end="url(#arrow)" />
<path d="M 10932 76 C 10956.0 76, 10972.0 76, 10996 76" fill="none" stroke="#2563eb" stroke-width="2.6" opacity="0.95" marker-end="url(#arrow)" />
<path d="M 11064 76 C 11088.0 76, 11104.0 76, 11128 76" fill="none" stroke="#2563eb" stroke-width="2.6" opacity="0.95" marker-end="url(#arrow)" />
<path d="M 11196 76 C 11220.0 76, 11236.0 76, 11260 76" fill="none" stroke="#2563eb" stroke-width="2.6" opacity="0.95" marker-end="url(#arrow)" />
<path d="M 11328 76 C 11352.0 76, 11368.0 76, 11392 76" fill="none" stroke="#2563eb" stroke-width="2.6" opacity="0.95" marker-end="url(#arrow)" />
<path d="M 11460 76 C 11484.0 76, 11500.0 76, 11524 76" fill="none" stroke="#2563eb" stroke-width="2.6" opacity="0.95" marker-end="url(#arrow)" />
<path d="M 11592 76 C 11616.0 76, 11632.0 76, 11656 76" fill="none" stroke="#2563eb" stroke-width="2.6" opacity="0.95" marker-end="url(#arrow)" />
<path d="M 11724 76 C 11748.0 76, 11764.0 76, 11788 76" fill="none" stroke="#2563eb" stroke-width="2.6" opacity="0.95" marker-end="url(#arrow)" />
<path d="M 11856 76 C 11880.0 76, 11896.0 76, 11920 76" fill="none" stroke="#2563eb" stroke-width="2.6" opacity="0.95" marker-end="url(#arrow)" />
<path d="M 11988 76 C 12012.0 76, 12028.0 76, 12052 76" fill="none" stroke="#2563eb" stroke-width="2.6" opacity="0.95" marker-end="url(#arrow)" />
<path d="M 12120 76 C 12144.0 76, 12160.0 76, 12184 76" fill="none" stroke="#2563eb" stroke-width="2.6" opacity="0.95" marker-end="url(#arrow)" />
<path d="M 12252 76 C 12276.0 76, 12292.0 76, 12316 76" fill="none" stroke="#2563eb" stroke-width="2.6" opacity="0.95" marker-end="url(#arrow)" />
<path d="M 12384 76 C 12408.0 76, 12424.0 76, 12448 76" fill="none" stroke="#2563eb" stroke-width="2.6" opacity="0.95" marker-end="url(#arrow)" />
<path d="M 12516 76 C 12540.0 76, 12556.0 76, 12580 76" fill="none" stroke="#2563eb" stroke-width="2.6" opacity="0.95" marker-end="url(#arrow)" />
<path d="M 12648 76 C 12672.0 76, 12688.0 76, 12712 76" fill="none" stroke="#2563eb" stroke-width="2.6" opacity="0.95" marker-end="url(#arrow)" />
<path d="M 12780 76 C 12804.0 76, 12820.0 76, 12844 76" fill="none" stroke="#2563eb" stroke-width="2.6" opacity="0.95" marker-end="url(#arrow)" />
<path d="M 12912 76 C 12936.0 76, 12952.0 76, 12976 76" fill="none" stroke="#2563eb" stroke-width="2.6" opacity="0.95" marker-end="url(#arrow)" />
<path d="M 13044 76 C 13068.0 76, 13084.0 76, 13108 76" fill="none" stroke="#2563eb" stroke-width="2.6" opacity="0.95" marker-end="url(#arrow)" />
<path d="M 13176 76 C 13200.0 76, 13216.0 76, 13240 76" fill="none" stroke="#2563eb" stroke-width="2.6" opacity="0.95" marker-end="url(#arrow)" />
<path d="M 13308 76 C 13332.0 76, 13348.0 76, 13372 76" fill="none" stroke="#2563eb" stroke-width="2.6" opacity="0.95" marker-end="url(#arrow)" />
<path d="M 13440 76 C 13464.0 76, 13480.0 76, 13504 76" fill="none" stroke="#2563eb" stroke-width="2.6" opacity="0.95" marker-end="url(#arrow)" />
<path d="M 13572 76 C 13596.0 76, 13612.0 76, 13636 76" fill="none" stroke="#2563eb" stroke-width="2.6" opacity="0.95" marker-end="url(#arrow)" />
<path d="M 13704 76 C 13728.0 76, 13744.0 76, 13768 76" fill="none" stroke="#2563eb" stroke-width="2.6" opacity="0.95" marker-end="url(#arrow)" />
<path d="M 13836 76 C 13860.0 76, 13876.0 76, 13900 76" fill="none" stroke="#2563eb" stroke-width="2.6" opacity="0.95" marker-end="url(#arrow)" />
<path d="M 13968 76 C 13992.0 76, 14008.0 76, 14032 76" fill="none" stroke="#2563eb" stroke-width="2.6" opacity="0.95" marker-end="url(#arrow)" />
<path d="M 14100 76 C 14124.0 76, 14140.0 76, 14164 76" fill="none" stroke="#2563eb" stroke-width="2.6" opacity="0.95" marker-end="url(#arrow)" />
<path d="M 14232 76 C 14256.0 76, 14272.0 76, 14296 76" fill="none" stroke="#2563eb" stroke-width="2.6" opacity="0.95" marker-end="url(#arrow)" />
<path d="M 14364 76 C 14388.0 76, 14404.0 76, 14428 76" fill="none" stroke="#2563eb" stroke-width="2.6" opacity="0.95" marker-end="url(#arrow)" />
<path d="M 14496 76 C 14520.0 76, 14536.0 76, 14560 76" fill="none" stroke="#2563eb" stroke-width="2.6" opacity="0.95" marker-end="url(#arrow)" />
<path d="M 14628 76 C 14652.0 76, 14668.0 76, 14692 76" fill="none" stroke="#2563eb" stroke-width="2.6" opacity="0.95" marker-end="url(#arrow)" />
<path d="M 14760 76 C 14784.0 76, 14800.0 76, 14824 76" fill="none" stroke="#2563eb" stroke-width="2.6" opacity="0.95" marker-end="url(#arrow)" />
<path d="M 14892 76 C 14916.0 76, 14932.0 76, 14956 76" fill="none" stroke="#2563eb" stroke-width="2.6" opacity="0.95" marker-end="url(#arrow)" />
<path d="M 15024 76 C 15048.0 76, 15064.0 76, 15088 76" fill="none" stroke="#2563eb" stroke-width="2.6" opacity="0.95" marker-end="url(#arrow)" />
<path d="M 15156 76 C 15180.0 76, 15196.0 76, 15220 76" fill="none" stroke="#2563eb" stroke-width="2.6" opacity="0.95" marker-end="url(#arrow)" />
<path d="M 15288 76 C 15312.0 76, 15328.0 76, 15352 76" fill="none" stroke="#2563eb" stroke-width="2.6" opacity="0.95" marker-end="url(#arrow)" />
<path d="M 15420 76 C 15444.0 76, 15460.0 76, 15484 76" fill="none" stroke="#2563eb" stroke-width="2.6" opacity="0.95" marker-end="url(#arrow)" />
<path d="M 15552 76 C 15576.0 76, 15592.0 76, 15616 76" fill="none" stroke="#2563eb" stroke-width="2.6" opacity="0.95" marker-end="url(#arrow)" />
<path d="M 15684 76 C 15708.0 76, 15724.0 76, 15748 76" fill="none" stroke="#2563eb" stroke-width="2.6" opacity="0.95" marker-end="url(#arrow)" />
<path d="M 15816 76 C 15840.0 76, 15856.0 76, 15880 76" fill="none" stroke="#2563eb" stroke-width="2.6" opacity="0.95" marker-end="url(#arrow)" />
<path d="M 15948 76 C 15972.0 76, 15988.0 76, 16012 76" fill="none" stroke="#2563eb" stroke-width="2.6" opacity="0.95" marker-end="url(#arrow)" />
<path d="M 16080 76 C 16104.0 76, 16120.0 76, 16144 76" fill="none" stroke="#2563eb" stroke-width="2.6" opacity="0.95" marker-end="url(#arrow)" />
<path d="M 16212 76 C 16236.0 76, 16252.0 76, 16276 76" fill="none" stroke="#2563eb" stroke-width="2.6" opacity="0.95" marker-end="url(#arrow)" />
<path d="M 16344 76 C 16368.0 76, 16384.0 76, 16408 76" fill="none" stroke="#2563eb" stroke-width="2.6" opacity="0.95" marker-end="url(#arrow)" />
<rect x="40" y="40" rx="8" ry="8" width="68" height="30" fill="#dbeafe" stroke="#1d4ed8" stroke-width="2" />
<text x="74.0" y="59.0" text-anchor="middle" font-family="Helvetica, Arial, sans-serif" font-size="12" fill="#0f172a">1</text>
<rect x="172" y="61" rx="8" ry="8" width="68" height="30" fill="#dbeafe" stroke="#1d4ed8" stroke-width="2" />
<text x="206.0" y="80.0" text-anchor="middle" font-family="Helvetica, Arial, sans-serif" font-size="12" fill="#0f172a">3</text>
<rect x="304" y="61" rx="8" ry="8" width="68" height="30" fill="#dbeafe" stroke="#1d4ed8" stroke-width="2" />
<text x="338.0" y="80.0" text-anchor="middle" font-family="Helvetica, Arial, sans-serif" font-size="12" fill="#0f172a">4</text>
<rect x="436" y="61" rx="8" ry="8" width="68" height="30" fill="#dbeafe" stroke="#1d4ed8" stroke-width="2" />
<text x="470.0" y="80.0" text-anchor="middle" font-family="Helvetica, Arial, sans-serif" font-size="12" fill="#0f172a">5</text>
<rect x="568" y="61" rx="8" ry="8" width="68" height="30" fill="#dbeafe" stroke="#1d4ed8" stroke-width="2" />
<text x="602.0" y="80.0" text-anchor="middle" font-family="Helvetica, Arial, sans-serif" font-size="12" fill="#0f172a">7</text>
<rect x="700" y="61" rx="8" ry="8" width="68" height="30" fill="#dbeafe" stroke="#1d4ed8" stroke-width="2" />
<text x="734.0" y="80.0" text-anchor="middle" font-family="Helvetica, Arial, sans-serif" font-size="12" fill="#0f172a">8</text>
<rect x="832" y="61" rx="8" ry="8" width="68" height="30" fill="#dbeafe" stroke="#1d4ed8" stroke-width="2" />
<text x="866.0" y="80.0" text-anchor="middle" font-family="Helvetica, Arial, sans-serif" font-size="12" fill="#0f172a">9</text>
<rect x="964" y="61" rx="8" ry="8" width="68" height="30" fill="#dbeafe" stroke="#1d4ed8" stroke-width="2" />
<text x="998.0" y="80.0" text-anchor="middle" font-family="Helvetica, Arial, sans-serif" font-size="12" fill="#0f172a">10</text>
<rect x="1096" y="61" rx="8" ry="8" width="68" height="30" fill="#dbeafe" stroke="#1d4ed8" stroke-width="2" />
<text x="1130.0" y="80.0" text-anchor="middle" font-family="Helvetica, Arial, sans-serif" font-size="12" fill="#0f172a">11</text>
<rect x="1228" y="61" rx="8" ry="8" width="68" height="30" fill="#dbeafe" stroke="#1d4ed8" stroke-width="2" />
<text x="1262.0" y="80.0" text-anchor="middle" font-family="Helvetica, Arial, sans-serif" font-size="12" fill="#0f172a">12</text>
<rect x="1360" y="61" rx="8" ry="8" width="68" height="30" fill="#dbeafe" stroke="#1d4ed8" stroke-width="2" />
<text x="1394.0" y="80.0" text-anchor="middle" font-family="Helvetica, Arial, sans-serif" font-size="12" fill="#0f172a">13</text>
<rect x="1492" y="61" rx="8" ry="8" width="68" height="30" fill="#dbeafe" stroke="#1d4ed8" stroke-width="2" />
<text x="1526.0" y="80.0" text-anchor="middle" font-family="Helvetica, Arial, sans-serif" font-size="12" fill="#0f172a">14</text>
<rect x="1624" y="61" rx="8" ry="8" width="68" height="30" fill="#dbeafe" stroke="#1d4ed8" stroke-width="2" />
<text x="1658.0" y="80.0" text-anchor="middle" font-family="Helvetica, Arial, sans-serif" font-size="12" fill="#0f172a">15</text>
<rect x="1756" y="61" rx="8" ry="8" width="68" height="30" fill="#dbeafe" stroke="#1d4ed8" stroke-width="2" />
<text x="1790.0" y="80.0" text-anchor="middle" font-family="Helvetica, Arial, sans-serif" font-size="12" fill="#0f172a">16</text>
<rect x="1888" y="61" rx="8" ry="8" width="68" height="30" fill="#dbeafe" stroke="#1d4ed8" stroke-width="2" />
<text x="1922.0" y="80.0" text-anchor="middle" font-family="Helvetica, Arial, sans-serif" font-size="12" fill="#0f172a">17</text>
<rect x="2020" y="61" rx="8" ry="8" width="68" height="30" fill="#dbeafe" stroke="#1d4ed8" stroke-width="2" />
<text x="2054.0" y="80.0" text-anchor="middle" font-family="Helvetica, Arial, sans-serif" font-size="12" fill="#0f172a">18</text>
<rect x="2152" y="61" rx="8" ry="8" width="68" height="30" fill="#dbeafe" stroke="#1d4ed8" stroke-width="2" />
<text x="2186.0" y="80.0" text-anchor="middle" font-family="Helvetica, Arial, sans-serif" font-size="12" fill="#0f172a">19</text>
<rect x="2284" y="61" rx="8" ry="8" width="68" height="30" fill="#dbeafe" stroke="#1d4ed8" stroke-width="2" />
<text x="2318.0" y="80.0" text-anchor="middle" font-family="Helvetica, Arial, sans-serif" font-size="12" fill="#0f172a">20</text>
<rect x="2416" y="61" rx="8" ry="8" width="68" height="30" fill="#dbeafe" stroke="#1d4ed8" stroke-width="2" />
<text x="2450.0" y="80.0" text-anchor="middle" font-family="Helvetica, Arial, sans-serif" font-size="12" fill="#0f172a">21</text>
<rect x="2548" y="61" rx="8" ry="8" width="68" height="30" fill="#dbeafe" stroke="#1d4ed8" stroke-width="2" />
<text x="2582.0" y="80.0" text-anchor="middle" font-family="Helvetica, Arial, sans-serif" font-size="12" fill="#0f172a">22</text>
<rect x="2680" y="61" rx="8" ry="8" width="68" height="30" fill="#dbeafe" stroke="#1d4ed8" stroke-width="2" />
<text x="2714.0" y="80.0" text-anchor="middle" font-family="Helvetica, Arial, sans-serif" font-size="12" fill="#0f172a">23</text>
<rect x="2812" y="61" rx="8" ry="8" width="68" height="30" fill="#dbeafe" stroke="#1d4ed8" stroke-width="2" />
<text x="2846.0" y="80.0" text-anchor="middle" font-family="Helvetica, Arial, sans-serif" font-size="12" fill="#0f172a">24</text>
<rect x="2944" y="61" rx="8" ry="8" width="68" height="30" fill="#dbeafe" stroke="#1d4ed8" stroke-width="2" />
<text x="2978.0" y="80.0" text-anchor="middle" font-family="Helvetica, Arial, sans-serif" font-size="12" fill="#0f172a">25</text>
<rect x="3076" y="61" rx="8" ry="8" width="68" height="30" fill="#dbeafe" stroke="#1d4ed8" stroke-width="2" />
<text x="3110.0" y="80.0" text-anchor="middle" font-family="Helvetica, Arial, sans-serif" font-size="12" fill="#0f172a">26</text>
<rect x="3208" y="61" rx="8" ry="8" width="68" height="30" fill="#dbeafe" stroke="#1d4ed8" stroke-width="2" />
<text x="3242.0" y="80.0" text-anchor="middle" font-family="Helvetica, Arial, sans-serif" font-size="12" fill="#0f172a">27</text>
<rect x="3340" y="61" rx="8" ry="8" width="68" height="30" fill="#dbeafe" stroke="#1d4ed8" stroke-width="2" />
<text x="3374.0" y="80.0" text-anchor="middle" font-family="Helvetica, Arial, sans-serif" font-size="12" fill="#0f172a">28</text>
<rect x="3472" y="61" rx="8" ry="8" width="68" height="30" fill="#dbeafe" stroke="#1d4ed8" stroke-width="2" />
<text x="3506.0" y="80.0" text-anchor="middle" font-family="Helvetica, Arial, sans-serif" font-size="12" fill="#0f172a">29</text>
<rect x="3604" y="61" rx="8" ry="8" width="68" height="30" fill="#dbeafe" stroke="#1d4ed8" stroke-width="2" />
<text x="3638.0" y="80.0" text-anchor="middle" font-family="Helvetica, Arial, sans-serif" font-size="12" fill="#0f172a">30</text>
<rect x="3736" y="61" rx="8" ry="8" width="68" height="30" fill="#dbeafe" stroke="#1d4ed8" stroke-width="2" />
<text x="3770.0" y="80.0" text-anchor="middle" font-family="Helvetica, Arial, sans-serif" font-size="12" fill="#0f172a">31</text>
<rect x="3868" y="61" rx="8" ry="8" width="68" height="30" fill="#dbeafe" stroke="#1d4ed8" stroke-width="2" />
<text x="3902.0" y="80.0" text-anchor="middle" font-family="Helvetica, Arial, sans-serif" font-size="12" fill="#0f172a">32</text>
<rect x="4000" y="61" rx="8" ry="8" width="68" height="30" fill="#dbeafe" stroke="#1d4ed8" stroke-width="2" />
<text x="4034.0" y="80.0" text-anchor="middle" font-family="Helvetica, Arial, sans-serif" font-size="12" fill="#0f172a">33</text>
<rect x="4132" y="61" rx="8" ry="8" width="68" height="30" fill="#dbeafe" stroke="#1d4ed8" stroke-width="2" />
<text x="4166.0" y="80.0" text-anchor="middle" font-family="Helvetica, Arial, sans-serif" font-size="12" fill="#0f172a">34</text>
<rect x="4264" y="61" rx="8" ry="8" width="68" height="30" fill="#dbeafe" stroke="#1d4ed8" stroke-width="2" />
<text x="4298.0" y="80.0" text-anchor="middle" font-family="Helvetica, Arial, sans-serif" font-size="12" fill="#0f172a">35</text>
<rect x="4396" y="61" rx="8" ry="8" width="68" height="30" fill="#dbeafe" stroke="#1d4ed8" stroke-width="2" />
<text x="4430.0" y="80.0" text-anchor="middle" font-family="Helvetica, Arial, sans-serif" font-size="12" fill="#0f172a">36</text>
<rect x="4528" y="61" rx="8" ry="8" width="68" height="30" fill="#dbeafe" stroke="#1d4ed8" stroke-width="2" />
<text x="4562.0" y="80.0" text-anchor="middle" font-family="Helvetica, Arial, sans-serif" font-size="12" fill="#0f172a">37</text>
<rect x="4660" y="61" rx="8" ry="8" width="68" height="30" fill="#dbeafe" stroke="#1d4ed8" stroke-width="2" />
<text x="4694.0" y="80.0" text-anchor="middle" font-family="Helvetica, Arial, sans-serif" font-size="12" fill="#0f172a">38</text>
<rect x="4792" y="61" rx="8" ry="8" width="68" height="30" fill="#dbeafe" stroke="#1d4ed8" stroke-width="2" />
<text x="4826.0" y="80.0" text-anchor="middle" font-family="Helvetica, Arial, sans-serif" font-size="12" fill="#0f172a">39</text>
<rect x="4924" y="61" rx="8" ry="8" width="68" height="30" fill="#dbeafe" stroke="#1d4ed8" stroke-width="2" />
<text x="4958.0" y="80.0" text-anchor="middle" font-family="Helvetica, Arial, sans-serif" font-size="12" fill="#0f172a">40</text>
<rect x="5056" y="61" rx="8" ry="8" width="68" height="30" fill="#dbeafe" stroke="#1d4ed8" stroke-width="2" />
<text x="5090.0" y="80.0" text-anchor="middle" font-family="Helvetica, Arial, sans-serif" font-size="12" fill="#0f172a">41</text>
<rect x="5188" y="61" rx="8" ry="8" width="68" height="30" fill="#dbeafe" stroke="#1d4ed8" stroke-width="2" />
<text x="5222.0" y="80.0" text-anchor="middle" font-family="Helvetica, Arial, sans-serif" font-size="12" fill="#0f172a">42</text>
<rect x="5320" y="61" rx="8" ry="8" width="68" height="30" fill="#dbeafe" stroke="#1d4ed8" stroke-width="2" />
<text x="5354.0" y="80.0" text-anchor="middle" font-family="Helvetica, Arial, sans-serif" font-size="12" fill="#0f172a">43</text>
<rect x="5452" y="61" rx="8" ry="8" width="68" height="30" fill="#dbeafe" stroke="#1d4ed8" stroke-width="2" />
<text x="5486.0" y="80.0" text-anchor="middle" font-family="Helvetica, Arial, sans-serif" font-size="12" fill="#0f172a">44</text>
<rect x="5584" y="61" rx="8" ry="8" width="68" height="30" fill="#dbeafe" stroke="#1d4ed8" stroke-width="2" />
<text x="5618.0" y="80.0" text-anchor="middle" font-family="Helvetica, Arial, sans-serif" font-size="12" fill="#0f172a">45</text>
<rect x="5716" y="61" rx="8" ry="8" width="68" height="30" fill="#dbeafe" stroke="#1d4ed8" stroke-width="2" />
<text x="5750.0" y="80.0" text-anchor="middle" font-family="Helvetica, Arial, sans-serif" font-size="12" fill="#0f172a">46</text>
<rect x="5848" y="61" rx="8" ry="8" width="68" height="30" fill="#dbeafe" stroke="#1d4ed8" stroke-width="2" />
<text x="5882.0" y="80.0" text-anchor="middle" font-family="Helvetica, Arial, sans-serif" font-size="12" fill="#0f172a">47</text>
<rect x="5980" y="61" rx="8" ry="8" width="68" height="30" fill="#dbeafe" stroke="#1d4ed8" stroke-width="2" />
<text x="6014.0" y="80.0" text-anchor="middle" font-family="Helvetica, Arial, sans-serif" font-size="12" fill="#0f172a">48</text>
<rect x="6112" y="61" rx="8" ry="8" width="68" height="30" fill="#dbeafe" stroke="#1d4ed8" stroke-width="2" />
<text x="6146.0" y="80.0" text-anchor="middle" font-family="Helvetica, Arial, sans-serif" font-size="12" fill="#0f172a">49</text>
<rect x="6244" y="61" rx="8" ry="8" width="68" height="30" fill="#dbeafe" stroke="#1d4ed8" stroke-width="2" />
<text x="6278.0" y="80.0" text-anchor="middle" font-family="Helvetica, Arial, sans-serif" font-size="12" fill="#0f172a">50</text>
<rect x="6376" y="61" rx="8" ry="8" width="68" height="30" fill="#dbeafe" stroke="#1d4ed8" stroke-width="2" />
<text x="6410.0" y="80.0" text-anchor="middle" font-family="Helvetica, Arial, sans-serif" font-size="12" fill="#0f172a">51</text>
<rect x="6508" y="61" rx="8" ry="8" width="68" height="30" fill="#dbeafe" stroke="#1d4ed8" stroke-width="2" />
<text x="6542.0" y="80.0" text-anchor="middle" font-family="Helvetica, Arial, sans-serif" font-size="12" fill="#0f172a">52</text>
<rect x="6640" y="61" rx="8" ry="8" width="68" height="30" fill="#dbeafe" stroke="#1d4ed8" stroke-width="2" />
<text x="6674.0" y="80.0" text-anchor="middle" font-family="Helvetica, Arial, sans-serif" font-size="12" fill="#0f172a">53</text>
<rect x="6772" y="61" rx="8" ry="8" width="68" height="30" fill="#dbeafe" stroke="#1d4ed8" stroke-width="2" />
<text x="6806.0" y="80.0" text-anchor="middle" font-family="Helvetica, Arial, sans-serif" font-size="12" fill="#0f172a">54</text>
<rect x="6904" y="61" rx="8" ry="8" width="68" height="30" fill="#dbeafe" stroke="#1d4ed8" stroke-width="2" />
<text x="6938.0" y="80.0" text-anchor="middle" font-family="Helvetica, Arial, sans-serif" font-size="12" fill="#0f172a">55</text>
<rect x="7036" y="61" rx="8" ry="8" width="68" height="30" fill="#dbeafe" stroke="#1d4ed8" stroke-width="2" />
<text x="7070.0" y="80.0" text-anchor="middle" font-family="Helvetica, Arial, sans-serif" font-size="12" fill="#0f172a">56</text>
<rect x="7168" y="61" rx="8" ry="8" width="68" height="30" fill="#dbeafe" stroke="#1d4ed8" stroke-width="2" />
<text x="7202.0" y="80.0" text-anchor="middle" font-family="Helvetica, Arial, sans-serif" font-size="12" fill="#0f172a">57</text>
<rect x="7300" y="61" rx="8" ry="8" width="68" height="30" fill="#dbeafe" stroke="#1d4ed8" stroke-width="2" />
<text x="7334.0" y="80.0" text-anchor="middle" font-family="Helvetica, Arial, sans-serif" font-size="12" fill="#0f172a">58</text>
<rect x="7432" y="61" rx="8" ry="8" width="68" height="30" fill="#dbeafe" stroke="#1d4ed8" stroke-width="2" />
<text x="7466.0" y="80.0" text-anchor="middle" font-family="Helvetica, Arial, sans-serif" font-size="12" fill="#0f172a">59</text>
<rect x="7564" y="61" rx="8" ry="8" width="68" height="30" fill="#dbeafe" stroke="#1d4ed8" stroke-width="2" />
<text x="7598.0" y="80.0" text-anchor="middle" font-family="Helvetica, Arial, sans-serif" font-size="12" fill="#0f172a">60</text>
<rect x="7696" y="61" rx="8" ry="8" width="68" height="30" fill="#dbeafe" stroke="#1d4ed8" stroke-width="2" />
<text x="7730.0" y="80.0" text-anchor="middle" font-family="Helvetica, Arial, sans-serif" font-size="12" fill="#0f172a">61</text>
<rect x="7828" y="61" rx="8" ry="8" width="68" height="30" fill="#dbeafe" stroke="#1d4ed8" stroke-width="2" />
<text x="7862.0" y="80.0" text-anchor="middle" font-family="Helvetica, Arial, sans-serif" font-size="12" fill="#0f172a">62</text>
<rect x="7960" y="61" rx="8" ry="8" width="68" height="30" fill="#dbeafe" stroke="#1d4ed8" stroke-width="2" />
<text x="7994.0" y="80.0" text-anchor="middle" font-family="Helvetica, Arial, sans-serif" font-size="12" fill="#0f172a">63</text>
<rect x="8092" y="61" rx="8" ry="8" width="68" height="30" fill="#dbeafe" stroke="#1d4ed8" stroke-width="2" />
<text x="8126.0" y="80.0" text-anchor="middle" font-family="Helvetica, Arial, sans-serif" font-size="12" fill="#0f172a">64</text>
<rect x="8224" y="61" rx="8" ry="8" width="68" height="30" fill="#dbeafe" stroke="#1d4ed8" stroke-width="2" />
<text x="8258.0" y="80.0" text-anchor="middle" font-family="Helvetica, Arial, sans-serif" font-size="12" fill="#0f172a">65</text>
<rect x="8356" y="61" rx="8" ry="8" width="68" height="30" fill="#dbeafe" stroke="#1d4ed8" stroke-width="2" />
<text x="8390.0" y="80.0" text-anchor="middle" font-family="Helvetica, Arial, sans-serif" font-size="12" fill="#0f172a">66</text>
<rect x="8488" y="61" rx="8" ry="8" width="68" height="30" fill="#dbeafe" stroke="#1d4ed8" stroke-width="2" />
<text x="8522.0" y="80.0" text-anchor="middle" font-family="Helvetica, Arial, sans-serif" font-size="12" fill="#0f172a">67</text>
<rect x="8620" y="61" rx="8" ry="8" width="68" height="30" fill="#dbeafe" stroke="#1d4ed8" stroke-width="2" />
<text x="8654.0" y="80.0" text-anchor="middle" font-family="Helvetica, Arial, sans-serif" font-size="12" fill="#0f172a">68</text>
<rect x="8752" y="61" rx="8" ry="8" width="68" height="30" fill="#dbeafe" stroke="#1d4ed8" stroke-width="2" />
<text x="8786.0" y="80.0" text-anchor="middle" font-family="Helvetica, Arial, sans-serif" font-size="12" fill="#0f172a">69</text>
<rect x="8884" y="61" rx="8" ry="8" width="68" height="30" fill="#dbeafe" stroke="#1d4ed8" stroke-width="2" />
<text x="8918.0" y="80.0" text-anchor="middle" font-family="Helvetica, Arial, sans-serif" font-size="12" fill="#0f172a">70</text>
<rect x="9016" y="61" rx="8" ry="8" width="68" height="30" fill="#dbeafe" stroke="#1d4ed8" stroke-width="2" />
<text x="9050.0" y="80.0" text-anchor="middle" font-family="Helvetica, Arial, sans-serif" font-size="12" fill="#0f172a">71</text>
<rect x="9148" y="61" rx="8" ry="8" width="68" height="30" fill="#dbeafe" stroke="#1d4ed8" stroke-width="2" />
<text x="9182.0" y="80.0" text-anchor="middle" font-family="Helvetica, Arial, sans-serif" font-size="12" fill="#0f172a">72</text>
<rect x="9280" y="61" rx="8" ry="8" width="68" height="30" fill="#dbeafe" stroke="#1d4ed8" stroke-width="2" />
<text x="9314.0" y="80.0" text-anchor="middle" font-family="Helvetica, Arial, sans-serif" font-size="12" fill="#0f172a">73</text>
<rect x="9412" y="61" rx="8" ry="8" width="68" height="30" fill="#dbeafe" stroke="#1d4ed8" stroke-width="2" />
<text x="9446.0" y="80.0" text-anchor="middle" font-family="Helvetica, Arial, sans-serif" font-size="12" fill="#0f172a">74</text>
<rect x="9544" y="61" rx="8" ry="8" width="68" height="30" fill="#dbeafe" stroke="#1d4ed8" stroke-width="2" />
<text x="9578.0" y="80.0" text-anchor="middle" font-family="Helvetica, Arial, sans-serif" font-size="12" fill="#0f172a">75</text>
<rect x="9676" y="61" rx="8" ry="8" width="68" height="30" fill="#dbeafe" stroke="#1d4ed8" stroke-width="2" />
<text x="9710.0" y="80.0" text-anchor="middle" font-family="Helvetica, Arial, sans-serif" font-size="12" fill="#0f172a">76</text>
<rect x="9808" y="61" rx="8" ry="8" width="68" height="30" fill="#dbeafe" stroke="#1d4ed8" stroke-width="2" />
<text x="9842.0" y="80.0" text-anchor="middle" font-family="Helvetica, Arial, sans-serif" font-size="12" fill="#0f172a">77</text>
<rect x="9940" y="61" rx="8" ry="8" width="68" height="30" fill="#dbeafe" stroke="#1d4ed8" stroke-width="2" />
<text x="9974.0" y="80.0" text-anchor="middle" font-family="Helvetica, Arial, sans-serif" font-size="12" fill="#0f172a">78</text>
<rect x="10072" y="61" rx="8" ry="8" width="68" height="30" fill="#dbeafe" stroke="#1d4ed8" stroke-width="2" />
<text x="10106.0" y="80.0" text-anchor="middle" font-family="Helvetica, Arial, sans-serif" font-size="12" fill="#0f172a">79</text>
<rect x="10204" y="61" rx="8" ry="8" width="68" height="30" fill="#dbeafe" stroke="#1d4ed8" stroke-width="2" />
<text x="10238.0" y="80.0" text-anchor="middle" font-family="Helvetica, Arial, sans-serif" font-size="12" fill="#0f172a">80</text>
<rect x="10336" y="61" rx="8" ry="8" width="68" height="30" fill="#dbeafe" stroke="#1d4ed8" stroke-width="2" />
<text x="10370.0" y="80.0" text-anchor="middle" font-family="Helvetica, Arial, sans-serif" font-size="12" fill="#0f172a">81</text>
<rect x="10468" y="61" rx="8" ry="8" width="68" height="30" fill="#dbeafe" stroke="#1d4ed8" stroke-width="2" />
<text x="10502.0" y="80.0" text-anchor="middle" font-family="Helvetica, Arial, sans-serif" font-size="12" fill="#0f172a">82</text>
<rect x="10600" y="61" rx="8" ry="8" width="68" height="30" fill="#dbeafe" stroke="#1d4ed8" stroke-width="2" />
<text x="10634.0" y="80.0" text-anchor="middle" font-family="Helvetica, Arial, sans-serif" font-size="12" fill="#0f172a">83</text>
<rect x="10732" y="61" rx="8" ry="8" width="68" height="30" fill="#dbeafe" stroke="#1d4ed8" stroke-width="2" />
<text x="10766.0" y="80.0" text-anchor="middle" font-family="Helvetica, Arial, sans-serif" font-size="12" fill="#0f172a">84</text>
<rect x="10864" y="61" rx="8" ry="8" width="68" height="30" fill="#dbeafe" stroke="#1d4ed8" stroke-width="2" />
<text x="10898.0" y="80.0" text-anchor="middle" font-family="Helvetica, Arial, sans-serif" font-size="12" fill="#0f172a">85</text>
<rect x="10996" y="61" rx="8" ry="8" width="68" height="30" fill="#dbeafe" stroke="#1d4ed8" stroke-width="2" />
<text x="11030.0" y="80.0" text-anchor="middle" font-family="Helvetica, Arial, sans-serif" font-size="12" fill="#0f172a">86</text>
<rect x="11128" y="61" rx="8" ry="8" width="68" height="30" fill="#dbeafe" stroke="#1d4ed8" stroke-width="2" />
<text x="11162.0" y="80.0" text-anchor="middle" font-family="Helvetica, Arial, sans-serif" font-size="12" fill="#0f172a">87</text>
<rect x="11260" y="61" rx="8" ry="8" width="68" height="30" fill="#dbeafe" stroke="#1d4ed8" stroke-width="2" />
<text x="11294.0" y="80.0" text-anchor="middle" font-family="Helvetica, Arial, sans-serif" font-size="12" fill="#0f172a">88</text>
<rect x="11392" y="61" rx="8" ry="8" width="68" height="30" fill="#dbeafe" stroke="#1d4ed8" stroke-width="2" />
<text x="11426.0" y="80.0" text-anchor="middle" font-family="Helvetica, Arial, sans-serif" font-size="12" fill="#0f172a">89</text>
<rect x="11524" y="61" rx="8" ry="8" width="68" height="30" fill="#dbeafe" stroke="#1d4ed8" stroke-width="2" />
<text x="11558.0" y="80.0" text-anchor="middle" font-family="Helvetica, Arial, sans-serif" font-size="12" fill="#0f172a">90</text>
<rect x="11656" y="61" rx="8" ry="8" width="68" height="30" fill="#dbeafe" stroke="#1d4ed8" stroke-width="2" />
<text x="11690.0" y="80.0" text-anchor="middle" font-family="Helvetica, Arial, sans-serif" font-size="12" fill="#0f172a">91</text>
<rect x="11788" y="61" rx="8" ry="8" width="68" height="30" fill="#dbeafe" stroke="#1d4ed8" stroke-width="2" />
<text x="11822.0" y="80.0" text-anchor="middle" font-family="Helvetica, Arial, sans-serif" font-size="12" fill="#0f172a">92</text>
<rect x="11920" y="61" rx="8" ry="8" width="68" height="30" fill="#dbeafe" stroke="#1d4ed8" stroke-width="2" />
<text x="11954.0" y="80.0" text-anchor="middle" font-family="Helvetica, Arial, sans-serif" font-size="12" fill="#0f172a">93</text>
<rect x="12052" y="61" rx="8" ry="8" width="68" height="30" fill="#dbeafe" stroke="#1d4ed8" stroke-width="2" />
<text x="12086.0" y="80.0" text-anchor="middle" font-family="Helvetica, Arial, sans-serif" font-size="12" fill="#0f172a">94</text>
<rect x="12184" y="61" rx="8" ry="8" width="68" height="30" fill="#dbeafe" stroke="#1d4ed8" stroke-width="2" />
<text x="12218.0" y="80.0" text-anchor="middle" font-family="Helvetica, Arial, sans-serif" font-size="12" fill="#0f172a">95</text>
<rect x="12316" y="61" rx="8" ry="8" width="68" height="30" fill="#dbeafe" stroke="#1d4ed8" stroke-width="2" />
<text x="12350.0" y="80.0" text-anchor="middle" font-family="Helvetica, Arial, sans-serif" font-size="12" fill="#0f172a">96</text>
<rect x="12448" y="61" rx="8" ry="8" width="68" height="30" fill="#dbeafe" stroke="#1d4ed8" stroke-width="2" />
<text x="12482.0" y="80.0" text-anchor="middle" font-family="Helvetica, Arial, sans-serif" font-size="12" fill="#0f172a">97</text>
<rect x="12580" y="61" rx="8" ry="8" width="68" height="30" fill="#dbeafe" stroke="#1d4ed8" stroke-width="2" />
<text x="12614.0" y="80.0" text-anchor="middle" font-family="Helvetica, Arial, sans-serif" font-size="12" fill="#0f172a">98</text>
<rect x="12712" y="61" rx="8" ry="8" width="68" height="30" fill="#dbeafe" stroke="#1d4ed8" stroke-width="2" />
<text x="12746.0" y="80.0" text-anchor="middle" font-family="Helvetica, Arial, sans-serif" font-size="12" fill="#0f172a">99</text>
<rect x="12844" y="61" rx="8" ry="8" width="68" height="30" fill="#dbeafe" stroke="#1d4ed8" stroke-width="2" />
<text x="12878.0" y="80.0" text-anchor="middle" font-family="Helvetica, Arial, sans-serif" font-size="12" fill="#0f172a">100</text>
<rect x="12976" y="61" rx="8" ry="8" width="68" height="30" fill="#dbeafe" stroke="#1d4ed8" stroke-width="2" />
<text x="13010.0" y="80.0" text-anchor="middle" font-family="Helvetica, Arial, sans-serif" font-size="12" fill="#0f172a">101</text>
<rect x="13108" y="61" rx="8" ry="8" width="68" height="30" fill="#dbeafe" stroke="#1d4ed8" stroke-width="2" />
<text x="13142.0" y="80.0" text-anchor="middle" font-family="Helvetica, Arial, sans-serif" font-size="12" fill="#0f172a">102</text>
<rect x="13240" y="61" rx="8" ry="8" width="68" height="30" fill="#dbeafe" stroke="#1d4ed8" stroke-width="2" />
<text x="13274.0" y="80.0" text-anchor="middle" font-family="Helvetica, Arial, sans-serif" font-size="12" fill="#0f172a">103</text>
<rect x="13372" y="61" rx="8" ry="8" width="68" height="30" fill="#dbeafe" stroke="#1d4ed8" stroke-width="2" />
<text x="13406.0" y="80.0" text-anchor="middle" font-family="Helvetica, Arial, sans-serif" font-size="12" fill="#0f172a">104</text>
<rect x="13504" y="61" rx="8" ry="8" width="68" height="30" fill="#dbeafe" stroke="#1d4ed8" stroke-width="2" />
<text x="13538.0" y="80.0" text-anchor="middle" font-family="Helvetica, Arial, sans-serif" font-size="12" fill="#0f172a">105</text>
<rect x="13636" y="61" rx="8" ry="8" width="68" height="30" fill="#dbeafe" stroke="#1d4ed8" stroke-width="2" />
<text x="13670.0" y="80.0" text-anchor="middle" font-family="Helvetica, Arial, sans-serif" font-size="12" fill="#0f172a">106</text>
<rect x="13768" y="61" rx="8" ry="8" width="68" height="30" fill="#dbeafe" stroke="#1d4ed8" stroke-width="2" />
<text x="13802.0" y="80.0" text-anchor="middle" font-family="Helvetica, Arial, sans-serif" font-size="12" fill="#0f172a">107</text>
<rect x="13900" y="61" rx="8" ry="8" width="68" height="30" fill="#dbeafe" stroke="#1d4ed8" stroke-width="2" />
<text x="13934.0" y="80.0" text-anchor="middle" font-family="Helvetica, Arial, sans-serif" font-size="12" fill="#0f172a">108</text>
<rect x="14032" y="61" rx="8" ry="8" width="68" height="30" fill="#dbeafe" stroke="#1d4ed8" stroke-width="2" />
<text x="14066.0" y="80.0" text-anchor="middle" font-family="Helvetica, Arial, sans-serif" font-size="12" fill="#0f172a">109</text>
<rect x="14164" y="61" rx="8" ry="8" width="68" height="30" fill="#dbeafe" stroke="#1d4ed8" stroke-width="2" />
<text x="14198.0" y="80.0" text-anchor="middle" font-family="Helvetica, Arial, sans-serif" font-size="12" fill="#0f172a">110</text>
<rect x="14296" y="61" rx="8" ry="8" width="68" height="30" fill="#dbeafe" stroke="#1d4ed8" stroke-width="2" />
<text x="14330.0" y="80.0" text-anchor="middle" font-family="Helvetica, Arial, sans-serif" font-size="12" fill="#0f172a">111</text>
<rect x="14428" y="61" rx="8" ry="8" width="68" height="30" fill="#dbeafe" stroke="#1d4ed8" stroke-width="2" />
<text x="14462.0" y="80.0" text-anchor="middle" font-family="Helvetica, Arial, sans-serif" font-size="12" fill="#0f172a">112</text>
<rect x="14560" y="61" rx="8" ry="8" width="68" height="30" fill="#dbeafe" stroke="#1d4ed8" stroke-width="2" />
<text x="14594.0" y="80.0" text-anchor="middle" font-family="Helvetica, Arial, sans-serif" font-size="12" fill="#0f172a">113</text>
<rect x="14692" y="61" rx="8" ry="8" width="68" height="30" fill="#dbeafe" stroke="#1d4ed8" stroke-width="2" />
<text x="14726.0" y="80.0" text-anchor="middle" font-family="Helvetica, Arial, sans-serif" font-size="12" fill="#0f172a">114</text>
<rect x="14824" y="61" rx="8" ry="8" width="68" height="30" fill="#dbeafe" stroke="#1d4ed8" stroke-width="2" />
<text x="14858.0" y="80.0" text-anchor="middle" font-family="Helvetica, Arial, sans-serif" font-size="12" fill="#0f172a">115</text>
<rect x="14956" y="61" rx="8" ry="8" width="68" height="30" fill="#dbeafe" stroke="#1d4ed8" stroke-width="2" />
<text x="14990.0" y="80.0" text-anchor="middle" font-family="Helvetica, Arial, sans-serif" font-size="12" fill="#0f172a">116</text>
<rect x="15088" y="61" rx="8" ry="8" width="68" height="30" fill="#dbeafe" stroke="#1d4ed8" stroke-width="2" />
<text x="15122.0" y="80.0" text-anchor="middle" font-family="Helvetica, Arial, sans-serif" font-size="12" fill="#0f172a">117</text>
<rect x="15220" y="61" rx="8" ry="8" width="68" height="30" fill="#dbeafe" stroke="#1d4ed8" stroke-width="2" />
<text x="15254.0" y="80.0" text-anchor="middle" font-family="Helvetica, Arial, sans-serif" font-size="12" fill="#0f172a">118</text>
<rect x="15352" y="61" rx="8" ry="8" width="68" height="30" fill="#dbeafe" stroke="#1d4ed8" stroke-width="2" />
<text x="15386.0" y="80.0" text-anchor="middle" font-family="Helvetica, Arial, sans-serif" font-size="12" fill="#0f172a">119</text>
<rect x="15484" y="61" rx="8" ry="8" width="68" height="30" fill="#dbeafe" stroke="#1d4ed8" stroke-width="2" />
<text x="15518.0" y="80.0" text-anchor="middle" font-family="Helvetica, Arial, sans-serif" font-size="12" fill="#0f172a">120</text>
<rect x="15616" y="61" rx="8" ry="8" width="68" height="30" fill="#dbeafe" stroke="#1d4ed8" stroke-width="2" />
<text x="15650.0" y="80.0" text-anchor="middle" font-family="Helvetica, Arial, sans-serif" font-size="12" fill="#0f172a">121</text>
<rect x="15748" y="61" rx="8" ry="8" width="68" height="30" fill="#dbeafe" stroke="#1d4ed8" stroke-width="2" />
<text x="15782.0" y="80.0" text-anchor="middle" font-family="Helvetica, Arial, sans-serif" font-size="12" fill="#0f172a">122</text>
<rect x="15880" y="61" rx="8" ry="8" width="68" height="30" fill="#dbeafe" stroke="#1d4ed8" stroke-width="2" />
<text x="15914.0" y="80.0" text-anchor="middle" font-family="Helvetica, Arial, sans-serif" font-size="12" fill="#0f172a">123</text>
<rect x="16012" y="61" rx="8" ry="8" width="68" height="30" fill="#dbeafe" stroke="#1d4ed8" stroke-width="2" />
<text x="16046.0" y="80.0" text-anchor="middle" font-family="Helvetica, Arial, sans-serif" font-size="12" fill="#0f172a">124</text>
<rect x="16144" y="61" rx="8" ry="8" width="68" height="30" fill="#dbeafe" stroke="#1d4ed8" stroke-width="2" />
<text x="16178.0" y="80.0" text-anchor="middle" font-family="Helvetica, Arial, sans-serif" font-size="12" fill="#0f172a">125</text>
<rect x="16276" y="61" rx="8" ry="8" width="68" height="30" fill="#dbeafe" stroke="#1d4ed8" stroke-width="2" />
<text x="16310.0" y="80.0" text-anchor="middle" font-family="Helvetica, Arial, sans-serif" font-size="12" fill="#0f172a">126</text>
<rect x="16408" y="61" rx="8" ry="8" width="68" height="30" fill="#dbeafe" stroke="#1d4ed8" stroke-width="2" />
<text x="16442.0" y="80.0" text-anchor="middle" font-family="Helvetica, Arial, sans-serif" font-size="12" fill="#0f172a">127</text>
<rect x="40" y="82" rx="8" ry="8" width="68" height="30" fill="#fee2e2" stroke="#b91c1c" stroke-width="1.6" />
<text x="74.0" y="101.0" text-anchor="middle" font-family="Helvetica, Arial, sans-serif" font-size="12" fill="#0f172a">132</text>
</svg>
