<svg xmlns="http://www.w3.org/2000/svg" width="3488" height="130" viewBox="0 0 3488 130">
<defs>
<marker id="arrow" markerWidth="10" markerHeight="7" refX="9" refY="3.5" orient="auto">
<polygon points="0 0, 10 3.5, 0 7" fill="#4b5563" />
</marker>
</defs>
<rect x="0" y="0" width="3488" height="130" fill="#ffffff" />
<path d="M 108 55 C 132.0 55, 148.0 55, 172 55" fill="none" stroke="#2563eb" stroke-width="2.6" opacity="0.95" marker-end="url(#arrow)" />
<path d="M 240 55 C 264.0 55, 280.0 55, 304 55" fill="none" stroke="#2563eb" stroke-width="2.6" opacity="0.95" marker-end="url(#arrow)" />
<path d="M 372 55 C 396.0 55, 412.0 55, 436 55" fill="none" stroke="#2563eb" stroke-width="2.6" opacity="0.95" marker-end="url(#arrow)" />
<path d="M 504 55 C 528.0 55, 544.0 55, 568 55" fill="none" stroke="#2563eb" stroke-width="2.6" opacity="0.95" marker-end="url(#arrow)" />
<path d="M 636 55 C 660.0 55, 676.0 55, 700 55" fill="none" stroke="#2563eb" stroke-width="2.6" opacity="0.95" marker-end="url(#arrow)" />
<path d="M 768 55 C 792.0 55, 808.0 55, 832 55" fill="none" stroke="#2563eb" stroke-width="2.6" opacity="0.95" marker-end="url(#arrow)" />
<path d="M 900 55 C 924.0 55, 940.0 55, 964 55" fill="none" stroke="#2563eb" stroke-width="2.6" opacity="0.95" marker-end="url(#arrow)" />
<path d="M 1032 55 C 1056.0 55, 1072.0 55, 1096 55" fill="none" stroke="#2563eb" stroke-width="2.6" opacity="0.95" marker-end="url(#arrow)" />
<path d="M 1164 55 C 1188.0 55, 1204.0 55, 1228 55" fill="none" stroke="#2563eb" stroke-width="2.6" opacity="0.95" marker-end="url(#arrow)" />
<path d="M 1296 55 C 1320.0 55, 1336.0 55, 1360 55" fill="none" stroke="#2563eb" stroke-width="2.6" opacity="0.95" marker-end="url(#arrow)" />
<path d="M 1428 55 C 1452.0 55, 1468.0 55, 1492 55" fill="none" stroke="#2563eb" stroke-width="2.6" opacity="0.95" marker-end="url(#arrow)" />
<path d="M 1560 55 C 1584.0 55, 1600.0 55, 1624 55" fill="none" stroke="#2563eb" stroke-width="2.6" opacity="0.95" marker-end="url(#arrow)" />
<path d="M 1692 55 C 1716.0 55, 1732.0 55, 1756 55" fill="none" stroke="#2563eb" stroke-width="2.6" opacity="0.95" marker-end="url(#arrow)" />
<path d="M 1824 55 C 1848.0 55, 1864.0 55, 1888 55" fill="none" stroke="#2563eb" stroke-width="2.6" opacity="0.95" marker-end="url(#arrow)" />
<path d="M 1956 55 C 1980.0 55, 1996.0 55, 2020 55" fill="none" stroke="#2563eb" stroke-width="2.6" opacity="0.95" marker-end="url(#arrow)" />
<path d="M 2088 55 C 2112.0 55, 2128.0 55, 2152 55" fill="none" stroke="#2563eb" stroke-width="2.6" opacity="0.95" marker-end="url(#arrow)" />
<path d="M 2220 55 C 2244.0 55, 2260.0 55, 2284 55" fill="none" stroke="#2563eb" stroke-width="2.6" opacity="0.95" marker-end="url(#arrow)" />
<path d="M 2352 55 C 2376.0 55, 2392.0 55, 2416 55" fill="none" stroke="#2563eb" stroke-width="2.6" opacity="0.95" marker-end="url(#arrow)" />
<path d="M 2484 55 C 2508.0 55, 2524.0 55, 2548 55" fill="none" stroke="#2563eb" stroke-width="2.6" opacity="0.95" marker-end="url(#arrow)" />
<path d="M 2616 55 C 2640.0 55, 2656.0 55, 2680 55" fill="none" stroke="#2563eb" stroke-width="2.6" opacity="0.95" marker-end="url(#arrow)" />
<path d="M 2748 55 C 2772.0 55, 2788.0 55, 2812 55" fill="none" stroke="#2563eb" stroke-width="2.6" opacity="0.95" marker-end="url(#arrow)" />
<path d="M 2880 55 C 2904.0 55, 2920.0 55, 2944 55" fill="none" stroke="#2563eb" stroke-width="2.6" opacity="0.95" marker-end="url(#arrow)" />
<path d="M 3012 55 C 3036.0 55, 3052.0 55, 3076 55" fill="none" stroke="#2563eb" stroke-width="2.6" opacity="0.95" marker-end="url(#arrow)" />
<path d="M 3144 55 C 3168.0 55, 3184.0 55, 3208 55" fill="none" stroke="#2563eb" stroke-width="2.6" opacity="0.95" marker-end="url(#arrow)" />
<path d="M 3276 55 C 3300.0 55, 3316.0 55, 3340 55" fill="none" stroke="#2563eb" stroke-width="2.6" opacity="0.95" marker-end="url(#arrow)" />
<rect x="40" y="40" rx="8" ry="8" width="68" height="30" fill="#dbeafe" stroke="#1d4ed8" stroke-width="2" />
<text x="74.0" y="59.0" text-anchor="middle" font-family="Helvetica, Arial, sans-serif" font-size="12" fill="#0f172a">2</text>
<rect x="172" y="40" rx="8" ry="8" width="68" height="30" fill="#dbeafe" stroke="#1d4ed8" stroke-width="2" />
<text x="206.0" y="59.0" text-anchor="middle" font-family="Helvetica, Arial, sans-serif" font-size="12" fill="#0f172a">3</text>
<rect x="304" y="40" rx="8" ry="8" width="68" height="30" fill="#dbeafe" stroke="#1d4ed8" stroke-width="2" />
<text x="338.0" y="59.0" text-anchor="middle" font-family="Helvetica, Arial, sans-serif" font-size="12" fill="#0f172a">4</text>
<rect x="436" y="40" rx="8" ry="8" width="68" height="30" fill="#dbeafe" stroke="#1d4ed8" stroke-width="2" />
<text x="470.0" y="59.0" text-anchor="middle" font-family="Helvetica, Arial, sans-serif" font-size="12" fill="#0f172a">5</text>
<rect x="568" y="40" rx="8" ry="8" width="68" height="30" fill="#dbeafe" stroke="#1d4ed8" stroke-width="2" />
<text x="602.0" y="59.0" text-anchor="middle" font-family="Helvetica, Arial, sans-serif" font-size="12" fill="#0f172a">6</text>
<rect x="700" y="40" rx="8" ry="8" width="68" height="30" fill="#dbeafe" stroke="#1d4ed8" stroke-width="2" />
<text x="734.0" y="59.0" text-anchor="middle" font-family="Helvetica, Arial, sans-serif" font-size="12" fill="#0f172a">7</text>
<rect x="832" y="40" rx="8" ry="8" width="68" height="30" fill="#dbeafe" stroke="#1d4ed8" stroke-width="2" />
<text x="866.0" y="59.0" text-anchor="middle" font-family="Helvetica, Arial, sans-serif" font-size="12" fill="#0f172a">8</text>
<rect x="964" y="40" rx="8" ry="8" width="68" height="30" fill="#dbeafe" stroke="#1d4ed8" stroke-width="2" />
<text x="998.0" y="59.0" text-anchor="middle" font-family="Helvetica, Arial, sans-serif" font-size="12" fill="#0f172a">9</text>
<rect x="1096" y="40" rx="8" ry="8" width="68" height="30" fill="#dbeafe" stroke="#1d4ed8" stroke-width="2" />
<text x="1130.0" y="59.0" text-anchor="middle" font-family="Helvetica, Arial, sans-serif" font-size="12" fill="#0f172a">10</text>
<rect x="1228" y="40" rx="8" ry="8" width="68" height="30" fill="#dbeafe" stroke="#1d4ed8" stroke-width="2" />
<text x="1262.0" y="59.0" text-anchor="middle" font-family="Helvetica, Arial, sans-serif" font-size="12" fill="#0f172a">11</text>
<rect x="1360" y="40" rx="8" ry="8" width="68" height="30" fill="#dbeafe" stroke="#1d4ed8" stroke-width="2" />
<text x="1394.0" y="59.0" text-anchor="middle" font-family="Helvetica, Arial, sans-serif" font-size="12" fill="#0f172a">12</text>
<rect x="1492" y="40" rx="8" ry="8" width="68" height="30" fill="#dbeafe" stroke="#1d4ed8" stroke-width="2" />
<text x="1526.0" y="59.0" text-anchor="middle" font-family="Helvetica, Arial, sans-serif" font-size="12" fill="#0f172a">13</text>
<rect x="1624" y="40" rx="8" ry="8" width="68" height="30" fill="#dbeafe" stroke="#1d4ed8" stroke-width="2" />
<text x="1658.0" y="59.0" text-anchor="middle" font-family="Helvetica, Arial, sans-serif" font-size="12" fill="#0f172a">14</text>
<rect x="1756" y="40" rx="8" ry="8" width="68" height="30" fill="#dbeafe" stroke="#1d4ed8" stroke-width="2" />
<text x="1790.0" y="59.0" text-anchor="middle" font-family="Helvetica, Arial, sans-serif" font-size="12" fill="#0f172a">15</text>
<rect x="1888" y="40" rx="8" ry="8" width="68" height="30" fill="#dbeafe" stroke="#1d4ed8" stroke-width="2" />
<text x="1922.0" y="59.0" text-anchor="middle" font-family="Helvetica, Arial, sans-serif" font-size="12" fill="#0f172a">16</text>
<rect x="2020" y="40" rx="8" ry="8" width="68" height="30" fill="#dbeafe" stroke="#1d4ed8" stroke-width="2" />
<text x="2054.0" y="59.0" text-anchor="middle" font-family="Helvetica, Arial, sans-serif" font-size="12" fill="#0f172a">17</text>
<rect x="2152" y="40" rx="8" ry="8" width="68" height="30" fill="#dbeafe" stroke="#1d4ed8" stroke-width="2" />
<text x="2186.0" y="59.0" text-anchor="middle" font-family="Helvetica, Arial, sans-serif" font-size="12" fill="#0f172a">18</text>
<rect x="2284" y="40" rx="8" ry="8" width="68" height="30" fill="#dbeafe" stroke="#1d4ed8" stroke-width="2" />
<text x="2318.0" y="59.0" text-anchor="middle" font-family="Helvetica, Arial, sans-serif" font-size="12" fill="#0f172a">19</text>
<rect x="2416" y="40" rx="8" ry="8" width="68" height="30" fill="#dbeafe" stroke="#1d4ed8" stroke-width="2" />
<text x="2450.0" y="59.0" text-anchor="middle" font-family="Helvetica, Arial, sans-serif" font-size="12" fill="#0f172a">20</text>
<rect x="2548" y="40" rx="8" ry="8" width="68" height="30" fill="#dbeafe" stroke="#1d4ed8" stroke-width="2" />
<text x="2582.0" y="59.0" text-anchor="middle" font-family="Helvetica, Arial, sans-serif" font-size="12" fill="#0f172a">21</text>
<rect x="2680" y="40" rx="8" ry="8" width="68" height="30" fill="#dbeafe" stroke="#1d4ed8" stroke-width="2" />
<text x="2714.0" y="59.0" text-anchor="middle" font-family="Helvetica, Arial, sans-serif" font-size="12" fill="#0f172a">22</text>
<rect x="2812" y="40" rx="8" ry="8" width="68" height="30" fill="#dbeafe" stroke="#1d4ed8" stroke-width="2" />
<text x="2846.0" y="59.0" text-anchor="middle" font-family="Helvetica, Arial, sans-serif" font-size="12" fill="#0f172a">23</text>
<rect x="2944" y="40" rx="8" ry="8" width="68" height="30" fill="#dbeafe" stroke="#1d4ed8" stroke-width="2" />
<text x="2978.0" y="59.0" text-anchor="middle" font-family="Helvetica, Arial, sans-serif" font-size="12" fill="#0f172a">24</text>
<rect x="3076" y="40" rx="8" ry="8" width="68" height="30" fill="#dbeafe" stroke="#1d4ed8" stroke-width="2" />
<text x="3110.0" y="59.0" text-anchor="middle" font-family="Helvetica, Arial, sans-serif" font-size="12" fill="#0f172a">25</text>
<rect x="3208" y="40" rx="8" ry="8" width="68" height="30" fill="#dbeafe" stroke="#1d4ed8" stroke-width="2" />
<text x="3242.0" y="59.0" text-anchor="middle" font-family="Helvetica, Arial, sans-serif" font-size="12" fill="#0f172a">26</text>
<rect x="3340" y="40" rx="8" ry="8" width="68" height="30" fill="#dbeafe" stroke="#1d4ed8" stroke-width="2" />
<text x="3374.0" y="59.0" text-anchor="middle" font-family="Helvetica, Arial, sans-serif" font-size="12" fill="#0f172a">27</text>
</svg>
