<svg xmlns="http://www.w3.org/2000/svg" width="9692" height="130" viewBox="0 0 9692 130">
<defs>
<marker id="arrow" markerWidth="10" markerHeight="7" refX="9" refY="3.5" orient="auto">
<polygon points="0 0, 10 3.5, 0 7" fill="#4b5563" />
</marker>
</defs>
<rect x="0" y="0" width="9692" height="130" fill="#ffffff" />
<path d="M 108 55 C 132.0 55, 148.0 55, 172 55" fill="none" stroke="#2563eb" stroke-width="2.6" opacity="0.95" marker-end="url(#arrow)" />
<path d="M 240 55 C 264.0 55, 280.0 55, 304 55" fill="none" stroke="#2563eb" stroke-width="2.6" opacity="0.95" marker-end="url(#arrow)" />
<path d="M 372 55 C 396.0 55, 412.0 55, 436 55" fill="none" stroke="#2563eb" stroke-width="2.6" opacity="0.95" marker-end="url(#arrow)" />
<path d="M 504 55 C 528.0 55, 544.0 55, 568 55" fill="none" stroke="#2563eb" stroke-width="2.6" opacity="0.95" marker-end="url(#arrow)" />
<path d="M 636 55 C 660.0 55, 676.0 55, 700 55" fill="none" stroke="#2563eb" stroke-width="2.6" opacity="0.95" marker-end="url(#arrow)" />
<path d="M 768 55 C 792.0 55, 808.0 55, 832 55" fill="none" stroke="#2563eb" stroke-width="2.6" opacity="0.95" marker-end="url(#arrow)" />
<path d="M 900 55 C 924.0 55, 940.0 55, 964 55" fill="none" stroke="#2563eb" stroke-width="2.6" opacity="0.95" marker-end="url(#arrow)" />
<path d="M 1032 55 C 1056.0 55, 1072.0 55, 1096 55" fill="none" stroke="#2563eb" stroke-width="2.6" opacity="0.95" marker-end="url(#arrow)" />
<path d="M 1164 55 C 1188.0 55, 1204.0 55, 1228 55" fill="none" stroke="#2563eb" stroke-width="2.6" opacity="0.95" marker-end="url(#arrow)" />
<path d="M 1296 55 C 1320.0 55, 1336.0 55, 1360 55" fill="none" stroke="#2563eb" stroke-width="2.6" opacity="0.95" marker-end="url(#arrow)" />
<path d="M 1428 55 C 1452.0 55, 1468.0 55, 1492 55" fill="none" stroke="#2563eb" stroke-width="2.6" opacity="0.95" marker-end="url(#arrow)" />
<path d="M 1560 55 C 1584.0 55, 1600.0 55, 1624 55" fill="none" stroke="#2563eb" stroke-width="2.6" opacity="0.95" marker-end="url(#arrow)" />
<path d="M 1692 55 C 1716.0 55, 1732.0 55, 1756 55" fill="none" stroke="#2563eb" stroke-width="2.6" opacity="0.95" marker-end="url(#arrow)" />
<path d="M 1824 55 C 1848.0 55, 1864.0 55, 1888 55" fill="none" stroke="#2563eb" stroke-width="2.6" opacity="0.95" marker-end="url(#arrow)" />
<path d="M 1956 55 C 1980.0 55, 1996.0 55, 2020 55" fill="none" stroke="#2563eb" stroke-width="2.6" opacity="0.95" marker-end="url(#arrow)" />
<path d="M 2088 55 C 2112.0 55, 2128.0 55, 2152 55" fill="none" stroke="#2563eb" stroke-width="2.6" opacity="0.95" marker-end="url(#arrow)" />
<path d="M 2220 55 C 2244.0 55, 2260.0 55, 2284 55" fill="none" stroke="#2563eb" stroke-width="2.6" opacity="0.95" marker-end="url(#arrow)" />
<path d="M 2352 55 C 2376.0 55, 2392.0 55, 2416 55" fill="none" stroke="#2563eb" stroke-width="2.6" opacity="0.95" marker-end="url(#arrow)" />
<path d="M 2484 55 C 2508.0 55, 2524.0 55, 2548 55" fill="none" stroke="#2563eb" stroke-width="2.6" opacity="0.95" marker-end="url(#arrow)" />
<path d="M 2616 55 C 2640.0 55, 2656.0 55, 2680 55" fill="none" stroke="#2563eb" stroke-width="2.6" opacity="0.95" marker-end="url(#arrow)" />
<path d="M 2748 55 C 2772.0 55, 2788.0 55, 2812 55" fill="none" stroke="#2563eb" stroke-width="2.6" opacity="0.95" marker-end="url(#arrow)" />
<path d="M 2880 55 C 2904.0 55, 2920.0 55, 2944 55" fill="none" stroke="#2563eb" stroke-width="2.6" opacity="0.95" marker-end="url(#arrow)" />
<path d="M 3012 55 C 3036.0 55, 3052.0 55, 3076 55" fill="none" stroke="#2563eb" stroke-width="2.6" opacity="0.95" marker-end="url(#arrow)" />
<path d="M 3144 55 C 3168.0 55, 3184.0 55, 3208 55" fill="none" stroke="#2563eb" stroke-width="2.6" opacity="0.95" marker-end="url(#arrow)" />
<path d="M 3276 55 C 3300.0 55, 3316.0 55, 3340 55" fill="none" stroke="#2563eb" stroke-width="2.6" opacity="0.95" marker-end="url(#arrow)" />
<path d="M 3408 55 C 3432.0 55, 3448.0 55, 3472 55" fill="none" stroke="#2563eb" stroke-width="2.6" opacity="0.95" marker-end="url(#arrow)" />
<path d="M 3540 55 C 3564.0 55, 3580.0 55, 3604 55" fill="none" stroke="#2563eb" stroke-width="2.6" opacity="0.95" marker-end="url(#arrow)" />
<path d="M 3672 55 C 3696.0 55, 3712.0 55, 3736 55" fill="none" stroke="#2563eb" stroke-width="2.6" opacity="0.95" marker-end="url(#arrow)" />
<path d="M 3804 55 C 3828.0 55, 3844.0 55, 3868 55" fill="none" stroke="#2563eb" stroke-width="2.6" opacity="0.95" marker-end="url(#arrow)" />
<path d="M 3936 55 C 3960.0 55, 3976.0 55, 4000 55" fill="none" stroke="#2563eb" stroke-width="2.6" opacity="0.95" marker-end="url(#arrow)" />
<path d="M 4068 55 C 4092.0 55, 4108.0 55, 4132 55" fill="none" stroke="#2563eb" stroke-width="2.6" opacity="0.95" marker-end="url(#arrow)" />
<path d="M 4200 55 C 4224.0 55, 4240.0 55, 4264 55" fill="none" stroke="#2563eb" stroke-width="2.6" opacity="0.95" marker-end="url(#arrow)" />
<path d="M 4332 55 C 4356.0 55, 4372.0 55, 4396 55" fill="none" stroke="#2563eb" stroke-width="2.6" opacity="0.95" marker-end="url(#arrow)" />
<path d="M 4464 55 C 4488.0 55, 4504.0 55, 4528 55" fill="none" stroke="#2563eb" stroke-width="2.6" opacity="0.95" marker-end="url(#arrow)" />
<path d="M 4596 55 C 4620.0 55, 4636.0 55, 4660 55" fill="none" stroke="#2563eb" stroke-width="2.6" opacity="0.95" marker-end="url(#arrow)" />
<path d="M 4728 55 C 4752.0 55, 4768.0 55, 4792 55" fill="none" stroke="#2563eb" stroke-width="2.6" opacity="0.95" marker-end="url(#arrow)" />
<path d="M 4860 55 C 4884.0 55, 4900.0 55, 4924 55" fill="none" stroke="#2563eb" stroke-width="2.6" opacity="0.95" marker-end="url(#arrow)" />
<path d="M 4992 55 C 5016.0 55, 5032.0 55, 5056 55" fill="none" stroke="#2563eb" stroke-width="2.6" opacity="0.95" marker-end="url(#arrow)" />
<path d="M 5124 55 C 5148.0 55, 5164.0 55, 5188 55" fill="none" stroke="#2563eb" stroke-width="2.6" opacity="0.95" marker-end="url(#arrow)" />
<path d="M 5256 55 C 5280.0 55, 5296.0 55, 5320 55" fill="none" stroke="#2563eb" stroke-width="2.6" opacity="0.95" marker-end="url(#arrow)" />
<path d="M 5388 55 C 5412.0 55, 5428.0 55, 5452 55" fill="none" stroke="#2563eb" stroke-width="2.6" opacity="0.95" marker-end="url(#arrow)" />
<path d="M 5520 55 C 5544.0 55, 5560.0 55, 5584 55" fill="none" stroke="#2563eb" stroke-width="2.6" opacity="0.95" marker-end="url(#arrow)" />
<path d="M 5652 55 C 5676.0 55, 5692.0 55, 5716 55" fill="none" stroke="#2563eb" stroke-width="2.6" opacity="0.95" marker-end="url(#arrow)" />
<path d="M 5784 55 C 5808.0 55, 5824.0 55, 5848 55" fill="none" stroke="#2563eb" stroke-width="2.6" opacity="0.95" marker-end="url(#arrow)" />
<path d="M 5916 55 C 5940.0 55, 5956.0 55, 5980 55" fill="none" stroke="#2563eb" stroke-width="2.6" opacity="0.95" marker-end="url(#arrow)" />
<path d="M 6048 55 C 6072.0 55, 6088.0 55, 6112 55" fill="none" stroke="#2563eb" stroke-width="2.6" opacity="0.95" marker-end="url(#arrow)" />
<path d="M 6180 55 C 6204.0 55, 6220.0 55, 6244 55" fill="none" stroke="#2563eb" stroke-width="2.6" opacity="0.95" marker-end="url(#arrow)" />
<path d="M 6312 55 C 6336.0 55, 6352.0 55, 6376 55" fill="none" stroke="#2563eb" stroke-width="2.6" opacity="0.95" marker-end="url(#arrow)" />
<path d="M 6444 55 C 6468.0 55, 6484.0 55, 6508 55" fill="none" stroke="#2563eb" stroke-width="2.6" opacity="0.95" marker-end="url(#arrow)" />
<path d="M 6576 55 C 6600.0 55, 6616.0 55, 6640 55" fill="none" stroke="#2563eb" stroke-width="2.6" opacity="0.95" marker-end="url(#arrow)" />
<path d="M 6708 55 C 6732.0 55, 6748.0 55, 6772 55" fill="none" stroke="#2563eb" stroke-width="2.6" opacity="0.95" marker-end="url(#arrow)" />
<path d="M 6840 55 C 6864.0 55, 6880.0 55, 6904 55" fill="none" stroke="#2563eb" stroke-width="2.6" opacity="0.95" marker-end="url(#arrow)" />
<path d="M 6972 55 C 6996.0 55, 7012.0 55, 7036 55" fill="none" stroke="#2563eb" stroke-width="2.6" opacity="0.95" marker-end="url(#arrow)" />
<path d="M 7104 55 C 7128.0 55, 7144.0 55, 7168 55" fill="none" stroke="#2563eb" stroke-width="2.6" opacity="0.95" marker-end="url(#arrow)" />
<path d="M 7236 55 C 7260.0 55, 7276.0 55, 7300 55" fill="none" stroke="#2563eb" stroke-width="2.6" opacity="0.95" marker-end="url(#arrow)" />
<path d="M 7368 55 C 7392.0 55, 7408.0 55, 7432 55" fill="none" stroke="#2563eb" stroke-width="2.6" opacity="0.95" marker-end="url(#arrow)" />
<path d="M 7500 55 C 7524.0 55, 7540.0 55, 7564 55" fill="none" stroke="#2563eb" stroke-width="2.6" opacity="0.95" marker-end="url(#arrow)" />
<path d="M 7632 55 C 7656.0 55, 7672.0 55, 7696 55" fill="none" stroke="#2563eb" stroke-width="2.6" opacity="0.95" marker-end="url(#arrow)" />
<path d="M 7764 55 C 7788.0 55, 7804.0 55, 7828 55" fill="none" stroke="#2563eb" stroke-width="2.6" opacity="0.95" marker-end="url(#arrow)" />
<path d="M 7896 55 C 7920.0 55, 7936.0 55, 7960 55" fill="none" stroke="#2563eb" stroke-width="2.6" opacity="0.95" marker-end="url(#arrow)" />
<path d="M 8028 55 C 8052.0 55, 8068.0 55, 8092 55" fill="none" stroke="#2563eb" stroke-width="2.6" opacity="0.95" marker-end="url(#arrow)" />
<path d="M 8160 55 C 8184.0 55, 8200.0 55, 8224 55" fill="none" stroke="#2563eb" stroke-width="2.6" opacity="0.95" marker-end="url(#arrow)" />
<path d="M 8292 55 C 8316.0 55, 8332.0 55, 8356 55" fill="none" stroke="#2563eb" stroke-width="2.6" opacity="0.95" marker-end="url(#arrow)" />
<path d="M 8424 55 C 8448.0 55, 8464.0 55, 8488 55" fill="none" stroke="#2563eb" stroke-width="2.6" opacity="0.95" marker-end="url(#arrow)" />
<path d="M 8556 55 C 8580.0 55, 8596.0 55, 8620 55" fill="none" stroke="#2563eb" stroke-width="2.6" opacity="0.95" marker-end="url(#arrow)" />
<path d="M 8688 55 C 8712.0 55, 8728.0 55, 8752 55" fill="none" stroke="#2563eb" stroke-width="2.6" opacity="0.95" marker-end="url(#arrow)" />
<path d="M 8820 55 C 8844.0 55, 8860.0 55, 8884 55" fill="none" stroke="#2563eb" stroke-width="2.6" opacity="0.95" marker-end="url(#arrow)" />
<path d="M 8952 55 C 8976.0 55, 8992.0 55, 9016 55" fill="none" stroke="#2563eb" stroke-width="2.6" opacity="0.95" marker-end="url(#arrow)" />
<path d="M 9084 55 C 9108.0 55, 9124.0 55, 9148 55" fill="none" stroke="#2563eb" stroke-width="2.6" opacity="0.95" marker-end="url(#arrow)" />
<path d="M 9216 55 C 9240.0 55, 9256.0 55, 9280 55" fill="none" stroke="#2563eb" stroke-width="2.6" opacity="0.95" marker-end="url(#arrow)" />
<path d="M 9348 55 C 9372.0 55, 9388.0 55, 9412 55" fill="none" stroke="#2563eb" stroke-width="2.6" opacity="0.95" marker-end="url(#arrow)" />
<path d="M 9480 55 C 9504.0 55, 9520.0 55, 9544 55" fill="none" stroke="#2563eb" stroke-width="2.6" opacity="0.95" marker-end="url(#arrow)" />
<rect x="40" y="40" rx="8" ry="8" width="68" height="30" fill="#dbeafe" stroke="#1d4ed8" stroke-width="2" />
<text x="74.0" y="59.0" text-anchor="middle" font-family="Helvetica, Arial, sans-serif" font-size="12" fill="#0f172a">4</text>
<rect x="172" y="40" rx="8" ry="8" width="68" height="30" fill="#dbeafe" stroke="#1d4ed8" stroke-width="2" />
<text x="206.0" y="59.0" text-anchor="middle" font-family="Helvetica, Arial, sans-serif" font-size="12" fill="#0f172a">6</text>
<rect x="304" y="40" rx="8" ry="8" width="68" height="30" fill="#dbeafe" stroke="#1d4ed8" stroke-width="2" />
<text x="338.0" y="59.0" text-anchor="middle" font-family="Helvetica, Arial, sans-serif" font-size="12" fill="#0f172a">7</text>
<rect x="436" y="40" rx="8" ry="8" width="68" height="30" fill="#dbeafe" stroke="#1d4ed8" stroke-width="2" />
<text x="470.0" y="59.0" text-anchor="middle" font-family="Helvetica, Arial, sans-serif" font-size="12" fill="#0f172a">8</text>
<rect x="568" y="40" rx="8" ry="8" width="68" height="30" fill="#dbeafe" stroke="#1d4ed8" stroke-width="2" />
<text x="602.0" y="59.0" text-anchor="middle" font-family="Helvetica, Arial, sans-serif" font-size="12" fill="#0f172a">9</text>
<rect x="700" y="40" rx="8" ry="8" width="68" height="30" fill="#dbeafe" stroke="#1d4ed8" stroke-width="2" />
<text x="734.0" y="59.0" text-anchor="middle" font-family="Helvetica, Arial, sans-serif" font-size="12" fill="#0f172a">10</text>
<rect x="832" y="40" rx="8" ry="8" width="68" height="30" fill="#dbeafe" stroke="#1d4ed8" stroke-width="2" />
<text x="866.0" y="59.0" text-anchor="middle" font-family="Helvetica, Arial, sans-serif" font-size="12" fill="#0f172a">11</text>
<rect x="964" y="40" rx="8" ry="8" width="68" height="30" fill="#dbeafe" stroke="#1d4ed8" stroke-width="2" />
<text x="998.0" y="59.0" text-anchor="middle" font-family="Helvetica, Arial, sans-serif" font-size="12" fill="#0f172a">12</text>
<rect x="1096" y="40" rx="8" ry="8" width="68" height="30" fill="#dbeafe" stroke="#1d4ed8" stroke-width="2" />
<text x="1130.0" y="59.0" text-anchor="middle" font-family="Helvetica, Arial, sans-serif" font-size="12" fill="#0f172a">13</text>
<rect x="1228" y="40" rx="8" ry="8" width="68" height="30" fill="#dbeafe" stroke="#1d4ed8" stroke-width="2" />
<text x="1262.0" y="59.0" text-anchor="middle" font-family="Helvetica, Arial, sans-serif" font-size="12" fill="#0f172a">15</text>
<rect x="1360" y="40" rx="8" ry="8" width="68" height="30" fill="#dbeafe" stroke="#1d4ed8" stroke-width="2" />
<text x="1394.0" y="59.0" text-anchor="middle" font-family="Helvetica, Arial, sans-serif" font-size="12" fill="#0f172a">16</text>
<rect x="1492" y="40" rx="8" ry="8" width="68" height="30" fill="#dbeafe" stroke="#1d4ed8" stroke-width="2" />
<text x="1526.0" y="59.0" text-anchor="middle" font-family="Helvetica, Arial, sans-serif" font-size="12" fill="#0f172a">17</text>
<rect x="1624" y="40" rx="8" ry="8" width="68" height="30" fill="#dbeafe" stroke="#1d4ed8" stroke-width="2" />
<text x="1658.0" y="59.0" text-anchor="middle" font-family="Helvetica, Arial, sans-serif" font-size="12" fill="#0f172a">18</text>
<rect x="1756" y="40" rx="8" ry="8" width="68" height="30" fill="#dbeafe" stroke="#1d4ed8" stroke-width="2" />
<text x="1790.0" y="59.0" text-anchor="middle" font-family="Helvetica, Arial, sans-serif" font-size="12" fill="#0f172a">19</text>
<rect x="1888" y="40" rx="8" ry="8" width="68" height="30" fill="#dbeafe" stroke="#1d4ed8" stroke-width="2" />
<text x="1922.0" y="59.0" text-anchor="middle" font-family="Helvetica, Arial, sans-serif" font-size="12" fill="#0f172a">20</text>
<rect x="2020" y="40" rx="8" ry="8" width="68" height="30" fill="#dbeafe" stroke="#1d4ed8" stroke-width="2" />
<text x="2054.0" y="59.0" text-anchor="middle" font-family="Helvetica, Arial, sans-serif" font-size="12" fill="#0f172a">21</text>
<rect x="2152" y="40" rx="8" ry="8" width="68" height="30" fill="#dbeafe" stroke="#1d4ed8" stroke-width="2" />
<text x="2186.0" y="59.0" text-anchor="middle" font-family="Helvetica, Arial, sans-serif" font-size="12" fill="#0f172a">22</text>
<rect x="2284" y="40" rx="8" ry="8" width="68" height="30" fill="#dbeafe" stroke="#1d4ed8" stroke-width="2" />
<text x="2318.0" y="59.0" text-anchor="middle" font-family="Helvetica, Arial, sans-serif" font-size="12" fill="#0f172a">23</text>
<rect x="2416" y="40" rx="8" ry="8" width="68" height="30" fill="#dbeafe" stroke="#1d4ed8" stroke-width="2" />
<text x="2450.0" y="59.0" text-anchor="middle" font-family="Helvetica, Arial, sans-serif" font-size="12" fill="#0f172a">25</text>
<rect x="2548" y="40" rx="8" ry="8" width="68" height="30" fill="#dbeafe" stroke="#1d4ed8" stroke-width="2" />
<text x="2582.0" y="59.0" text-anchor="middle" font-family="Helvetica, Arial, sans-serif" font-size="12" fill="#0f172a">26</text>
<rect x="2680" y="40" rx="8" ry="8" width="68" height="30" fill="#dbeafe" stroke="#1d4ed8" stroke-width="2" />
<text x="2714.0" y="59.0" text-anchor="middle" font-family="Helvetica, Arial, sans-serif" font-size="12" fill="#0f172a">27</text>
<rect x="2812" y="40" rx="8" ry="8" width="68" height="30" fill="#dbeafe" stroke="#1d4ed8" stroke-width="2" />
<text x="2846.0" y="59.0" text-anchor="middle" font-family="Helvetica, Arial, sans-serif" font-size="12" fill="#0f172a">28</text>
<rect x="2944" y="40" rx="8" ry="8" width="68" height="30" fill="#dbeafe" stroke="#1d4ed8" stroke-width="2" />
<text x="2978.0" y="59.0" text-anchor="middle" font-family="Helvetica, Arial, sans-serif" font-size="12" fill="#0f172a">29</text>
<rect x="3076" y="40" rx="8" ry="8" width="68" height="30" fill="#dbeafe" stroke="#1d4ed8" stroke-width="2" />
<text x="3110.0" y="59.0" text-anchor="middle" font-family="Helvetica, Arial, sans-serif" font-size="12" fill="#0f172a">30</text>
<rect x="3208" y="40" rx="8" ry="8" width="68" height="30" fill="#dbeafe" stroke="#1d4ed8" stroke-width="2" />
<text x="3242.0" y="59.0" text-anchor="middle" font-family="Helvetica, Arial, sans-serif" font-size="12" fill="#0f172a">31</text>
<rect x="3340" y="40" rx="8" ry="8" width="68" height="30" fill="#dbeafe" stroke="#1d4ed8" stroke-width="2" />
<text x="3374.0" y="59.0" text-anchor="middle" font-family="Helvetica, Arial, sans-serif" font-size="12" fill="#0f172a">32</text>
<rect x="3472" y="40" rx="8" ry="8" width="68" height="30" fill="#dbeafe" stroke="#1d4ed8" stroke-width="2" />
<text x="3506.0" y="59.0" text-anchor="middle" font-family="Helvetica, Arial, sans-serif" font-size="12" fill="#0f172a">33</text>
<rect x="3604" y="40" rx="8" ry="8" width="68" height="30" fill="#dbeafe" stroke="#1d4ed8" stroke-width="2" />
<text x="3638.0" y="59.0" text-anchor="middle" font-family="Helvetica, Arial, sans-serif" font-size="12" fill="#0f172a">34</text>
<rect x="3736" y="40" rx="8" ry="8" width="68" height="30" fill="#dbeafe" stroke="#1d4ed8" stroke-width="2" />
<text x="3770.0" y="59.0" text-anchor="middle" font-family="Helvetica, Arial, sans-serif" font-size="12" fill="#0f172a">35</text>
<rect x="3868" y="40" rx="8" ry="8" width="68" height="30" fill="#dbeafe" stroke="#1d4ed8" stroke-width="2" />
<text x="3902.0" y="59.0" text-anchor="middle" font-family="Helvetica, Arial, sans-serif" font-size="12" fill="#0f172a">36</text>
<rect x="4000" y="40" rx="8" ry="8" width="68" height="30" fill="#dbeafe" stroke="#1d4ed8" stroke-width="2" />
<text x="4034.0" y="59.0" text-anchor="middle" font-family="Helvetica, Arial, sans-serif" font-size="12" fill="#0f172a">37</text>
<rect x="4132" y="40" rx="8" ry="8" width="68" height="30" fill="#dbeafe" stroke="#1d4ed8" stroke-width="2" />
<text x="4166.0" y="59.0" text-anchor="middle" font-family="Helvetica, Arial, sans-serif" font-size="12" fill="#0f172a">38</text>
<rect x="4264" y="40" rx="8" ry="8" width="68" height="30" fill="#dbeafe" stroke="#1d4ed8" stroke-width="2" />
<text x="4298.0" y="59.0" text-anchor="middle" font-family="Helvetica, Arial, sans-serif" font-size="12" fill="#0f172a">39</text>
<rect x="4396" y="40" rx="8" ry="8" width="68" height="30" fill="#dbeafe" stroke="#1d4ed8" stroke-width="2" />
<text x="4430.0" y="59.0" text-anchor="middle" font-family="Helvetica, Arial, sans-serif" font-size="12" fill="#0f172a">40</text>
<rect x="4528" y="40" rx="8" ry="8" width="68" height="30" fill="#dbeafe" stroke="#1d4ed8" stroke-width="2" />
<text x="4562.0" y="59.0" text-anchor="middle" font-family="Helvetica, Arial, sans-serif" font-size="12" fill="#0f172a">41</text>
<rect x="4660" y="40" rx="8" ry="8" width="68" height="30" fill="#dbeafe" stroke="#1d4ed8" stroke-width="2" />
<text x="4694.0" y="59.0" text-anchor="middle" font-family="Helvetica, Arial, sans-serif" font-size="12" fill="#0f172a">42</text>
<rect x="4792" y="40" rx="8" ry="8" width="68" height="30" fill="#dbeafe" stroke="#1d4ed8" stroke-width="2" />
<text x="4826.0" y="59.0" text-anchor="middle" font-family="Helvetica, Arial, sans-serif" font-size="12" fill="#0f172a">44</text>
<rect x="4924" y="40" rx="8" ry="8" width="68" height="30" fill="#dbeafe" stroke="#1d4ed8" stroke-width="2" />
<text x="4958.0" y="59.0" text-anchor="middle" font-family="Helvetica, Arial, sans-serif" font-size="12" fill="#0f172a">45</text>
<rect x="5056" y="40" rx="8" ry="8" width="68" height="30" fill="#dbeafe" stroke="#1d4ed8" stroke-width="2" />
<text x="5090.0" y="59.0" text-anchor="middle" font-family="Helvetica, Arial, sans-serif" font-size="12" fill="#0f172a">46</text>
<rect x="5188" y="40" rx="8" ry="8" width="68" height="30" fill="#dbeafe" stroke="#1d4ed8" stroke-width="2" />
<text x="5222.0" y="59.0" text-anchor="middle" font-family="Helvetica, Arial, sans-serif" font-size="12" fill="#0f172a">47</text>
<rect x="5320" y="40" rx="8" ry="8" width="68" height="30" fill="#dbeafe" stroke="#1d4ed8" stroke-width="2" />
<text x="5354.0" y="59.0" text-anchor="middle" font-family="Helvetica, Arial, sans-serif" font-size="12" fill="#0f172a">48</text>
<rect x="5452" y="40" rx="8" ry="8" width="68" height="30" fill="#dbeafe" stroke="#1d4ed8" stroke-width="2" />
<text x="5486.0" y="59.0" text-anchor="middle" font-family="Helvetica, Arial, sans-serif" font-size="12" fill="#0f172a">49</text>
<rect x="5584" y="40" rx="8" ry="8" width="68" height="30" fill="#dbeafe" stroke="#1d4ed8" stroke-width="2" />
<text x="5618.0" y="59.0" text-anchor="middle" font-family="Helvetica, Arial, sans-serif" font-size="12" fill="#0f172a">50</text>
<rect x="5716" y="40" rx="8" ry="8" width="68" height="30" fill="#dbeafe" stroke="#1d4ed8" stroke-width="2" />
<text x="5750.0" y="59.0" text-anchor="middle" font-family="Helvetica, Arial, sans-serif" font-size="12" fill="#0f172a">51</text>
<rect x="5848" y="40" rx="8" ry="8" width="68" height="30" fill="#dbeafe" stroke="#1d4ed8" stroke-width="2" />
<text x="5882.0" y="59.0" text-anchor="middle" font-family="Helvetica, Arial, sans-serif" font-size="12" fill="#0f172a">52</text>
<rect x="5980" y="40" rx="8" ry="8" width="68" height="30" fill="#dbeafe" stroke="#1d4ed8" stroke-width="2" />
<text x="6014.0" y="59.0" text-anchor="middle" font-family="Helvetica, Arial, sans-serif" font-size="12" fill="#0f172a">54</text>
<rect x="6112" y="40" rx="8" ry="8" width="68" height="30" fill="#dbeafe" stroke="#1d4ed8" stroke-width="2" />
<text x="6146.0" y="59.0" text-anchor="middle" font-family="Helvetica, Arial, sans-serif" font-size="12" fill="#0f172a">55</text>
<rect x="6244" y="40" rx="8" ry="8" width="68" height="30" fill="#dbeafe" stroke="#1d4ed8" stroke-width="2" />
<text x="6278.0" y="59.0" text-anchor="middle" font-family="Helvetica, Arial, sans-serif" font-size="12" fill="#0f172a">56</text>
<rect x="6376" y="40" rx="8" ry="8" width="68" height="30" fill="#dbeafe" stroke="#1d4ed8" stroke-width="2" />
<text x="6410.0" y="59.0" text-anchor="middle" font-family="Helvetica, Arial, sans-serif" font-size="12" fill="#0f172a">57</text>
<rect x="6508" y="40" rx="8" ry="8" width="68" height="30" fill="#dbeafe" stroke="#1d4ed8" stroke-width="2" />
<text x="6542.0" y="59.0" text-anchor="middle" font-family="Helvetica, Arial, sans-serif" font-size="12" fill="#0f172a">59</text>
<rect x="6640" y="40" rx="8" ry="8" width="68" height="30" fill="#dbeafe" stroke="#1d4ed8" stroke-width="2" />
<text x="6674.0" y="59.0" text-anchor="middle" font-family="Helvetica, Arial, sans-serif" font-size="12" fill="#0f172a">60</text>
<rect x="6772" y="40" rx="8" ry="8" width="68" height="30" fill="#dbeafe" stroke="#1d4ed8" stroke-width="2" />
<text x="6806.0" y="59.0" text-anchor="middle" font-family="Helvetica, Arial, sans-serif" font-size="12" fill="#0f172a">62</text>
<rect x="6904" y="40" rx="8" ry="8" width="68" height="30" fill="#dbeafe" stroke="#1d4ed8" stroke-width="2" />
<text x="6938.0" y="59.0" text-anchor="middle" font-family="Helvetica, Arial, sans-serif" font-size="12" fill="#0f172a">63</text>
<rect x="7036" y="40" rx="8" ry="8" width="68" height="30" fill="#dbeafe" stroke="#1d4ed8" stroke-width="2" />
<text x="7070.0" y="59.0" text-anchor="middle" font-family="Helvetica, Arial, sans-serif" font-size="12" fill="#0f172a">64</text>
<rect x="7168" y="40" rx="8" ry="8" width="68" height="30" fill="#dbeafe" stroke="#1d4ed8" stroke-width="2" />
<text x="7202.0" y="59.0" text-anchor="middle" font-family="Helvetica, Arial, sans-serif" font-size="12" fill="#0f172a">65</text>
<rect x="7300" y="40" rx="8" ry="8" width="68" height="30" fill="#dbeafe" stroke="#1d4ed8" stroke-width="2" />
<text x="7334.0" y="59.0" text-anchor="middle" font-family="Helvetica, Arial, sans-serif" font-size="12" fill="#0f172a">66</text>
<rect x="7432" y="40" rx="8" ry="8" width="68" height="30" fill="#dbeafe" stroke="#1d4ed8" stroke-width="2" />
<text x="7466.0" y="59.0" text-anchor="middle" font-family="Helvetica, Arial, sans-serif" font-size="12" fill="#0f172a">67</text>
<rect x="7564" y="40" rx="8" ry="8" width="68" height="30" fill="#dbeafe" stroke="#1d4ed8" stroke-width="2" />
<text x="7598.0" y="59.0" text-anchor="middle" font-family="Helvetica, Arial, sans-serif" font-size="12" fill="#0f172a">68</text>
<rect x="7696" y="40" rx="8" ry="8" width="68" height="30" fill="#dbeafe" stroke="#1d4ed8" stroke-width="2" />
<text x="7730.0" y="59.0" text-anchor="middle" font-family="Helvetica, Arial, sans-serif" font-size="12" fill="#0f172a">69</text>
<rect x="7828" y="40" rx="8" ry="8" width="68" height="30" fill="#dbeafe" stroke="#1d4ed8" stroke-width="2" />
<text x="7862.0" y="59.0" text-anchor="middle" font-family="Helvetica, Arial, sans-serif" font-size="12" fill="#0f172a">70</text>
<rect x="7960" y="40" rx="8" ry="8" width="68" height="30" fill="#dbeafe" stroke="#1d4ed8" stroke-width="2" />
<text x="7994.0" y="59.0" text-anchor="middle" font-family="Helvetica, Arial, sans-serif" font-size="12" fill="#0f172a">71</text>
<rect x="8092" y="40" rx="8" ry="8" width="68" height="30" fill="#dbeafe" stroke="#1d4ed8" stroke-width="2" />
<text x="8126.0" y="59.0" text-anchor="middle" font-family="Helvetica, Arial, sans-serif" font-size="12" fill="#0f172a">72</text>
<rect x="8224" y="40" rx="8" ry="8" width="68" height="30" fill="#dbeafe" stroke="#1d4ed8" stroke-width="2" />
<text x="8258.0" y="59.0" text-anchor="middle" font-family="Helvetica, Arial, sans-serif" font-size="12" fill="#0f172a">73</text>
<rect x="8356" y="40" rx="8" ry="8" width="68" height="30" fill="#dbeafe" stroke="#1d4ed8" stroke-width="2" />
<text x="8390.0" y="59.0" text-anchor="middle" font-family="Helvetica, Arial, sans-serif" font-size="12" fill="#0f172a">74</text>
<rect x="8488" y="40" rx="8" ry="8" width="68" height="30" fill="#dbeafe" stroke="#1d4ed8" stroke-width="2" />
<text x="8522.0" y="59.0" text-anchor="middle" font-family="Helvetica, Arial, sans-serif" font-size="12" fill="#0f172a">75</text>
<rect x="8620" y="40" rx="8" ry="8" width="68" height="30" fill="#dbeafe" stroke="#1d4ed8" stroke-width="2" />
<text x="8654.0" y="59.0" text-anchor="middle" font-family="Helvetica, Arial, sans-serif" font-size="12" fill="#0f172a">76</text>
<rect x="8752" y="40" rx="8" ry="8" width="68" height="30" fill="#dbeafe" stroke="#1d4ed8" stroke-width="2" />
<text x="8786.0" y="59.0" text-anchor="middle" font-family="Helvetica, Arial, sans-serif" font-size="12" fill="#0f172a">77</text>
<rect x="8884" y="40" rx="8" ry="8" width="68" height="30" fill="#dbeafe" stroke="#1d4ed8" stroke-width="2" />
<text x="8918.0" y="59.0" text-anchor="middle" font-family="Helvetica, Arial, sans-serif" font-size="12" fill="#0f172a">78</text>
<rect x="9016" y="40" rx="8" ry="8" width="68" height="30" fill="#dbeafe" stroke="#1d4ed8" stroke-width="2" />
<text x="9050.0" y="59.0" text-anchor="middle" font-family="Helvetica, Arial, sans-serif" font-size="12" fill="#0f172a">79</text>
<rect x="9148" y="40" rx="8" ry="8" width="68" height="30" fill="#dbeafe" stroke="#1d4ed8" stroke-width="2" />
<text x="9182.0" y="59.0" text-anchor="middle" font-family="Helvetica, Arial, sans-serif" font-size="12" fill="#0f172a">80</text>
<rect x="9280" y="40" rx="8" ry="8" width="68" height="30" fill="#dbeafe" stroke="#1d4ed8" stroke-width="2" />
<text x="9314.0" y="59.0" text-anchor="middle" font-family="Helvetica, Arial, sans-serif" font-size="12" fill="#0f172a">81</text>
<rect x="9412" y="40" rx="8" ry="8" width="68" height="30" fill="#dbeafe" stroke="#1d4ed8" stroke-width="2" />
<text x="9446.0" y="59.0" text-anchor="middle" font-family="Helvetica, Arial, sans-serif" font-size="12" fill="#0f172a">82</text>
<rect x="9544" y="40" rx="8" ry="8" width="68" height="30" fill="#dbeafe" stroke="#1d4ed8" stroke-width="2" />
<text x="9578.0" y="59.0" text-anchor="middle" font-family="Helvetica, Arial, sans-serif" font-size="12" fill="#0f172a">83</text>
</svg>
